<?xml version="1.0" standalone="no"?>
<!DOCTYPE svg PUBLIC "-//W3C//DTD SVG 20010904//EN"
 "http://www.w3.org/TR/2001/REC-SVG-20010904/DTD/svg10.dtd">
<svg version="1.0" xmlns="http://www.w3.org/2000/svg"
 width="941.000000pt" height="941.000000pt" viewBox="0 0 941.000000 941.000000"
 preserveAspectRatio="xMidYMid meet">
<metadata>
Created by potrace 1.11, written by Peter Selinger 2001-2013
</metadata>
<g transform="translate(0.000000,941.000000) scale(0.100000,-0.100000)"
fill="#000000" stroke="none">
<path d="M7356 8608 c4 -7 3 -8 -4 -4 -7 4 -17 4 -24 0 -16 -10 -61 -10 -77 0
-8 5 -16 4 -20 -2 -4 -7 -12 -8 -21 -2 -22 14 -33 12 -27 -4 4 -10 1 -13 -9
-9 -7 3 -14 9 -14 13 0 9 -138 4 -180 -6 -14 -3 -97 -8 -185 -9 -177 -4 -208
-12 -311 -86 -71 -51 -286 -159 -347 -174 -15 -4 -27 -11 -27 -16 0 -5 -18
-18 -40 -29 -22 -11 -40 -18 -40 -15 0 3 -14 -8 -31 -25 -18 -16 -36 -30 -41
-30 -5 0 -21 -11 -36 -25 -15 -14 -35 -25 -44 -25 -10 0 -18 -6 -18 -13 0 -7
-25 -32 -55 -56 -31 -25 -64 -58 -75 -75 -11 -17 -35 -46 -55 -65 -19 -19 -35
-41 -35 -49 0 -8 -2 -13 -6 -10 -3 3 -22 -12 -42 -34 -66 -72 -117 -118 -136
-124 -36 -12 -150 -91 -188 -130 -69 -71 -138 -157 -138 -171 0 -28 -41 -68
-68 -68 -23 0 -27 -4 -24 -26 2 -26 1 -27 -68 -34 -55 -6 -73 -12 -85 -28 -8
-12 -15 -25 -15 -29 0 -4 20 -31 44 -61 l43 -54 -28 -19 c-16 -10 -29 -22 -29
-26 0 -4 -6 -5 -14 -2 -8 3 -17 0 -22 -7 -5 -9 -2 -10 11 -6 14 6 17 3 13 -20
-3 -16 -9 -37 -13 -47 -6 -14 -5 -17 4 -11 10 6 11 3 1 -15 -6 -12 -9 -24 -6
-28 3 -3 6 0 6 6 0 7 4 12 10 12 11 0 1 -30 -16 -47 -6 -7 -14 -10 -17 -7 -2
3 -7 -5 -10 -17 -4 -16 -3 -19 6 -10 23 23 36 11 43 -45 5 -43 3 -58 -7 -65
-11 -7 -10 -9 4 -9 10 0 15 -4 12 -10 -3 -5 -17 -10 -30 -10 -13 0 -30 -7 -39
-15 -18 -19 -37 -20 -30 -1 10 27 -14 26 -25 -2 -6 -15 -22 -42 -35 -60 -20
-26 -23 -40 -19 -79 7 -65 42 -117 117 -173 13 -10 17 -10 12 -2 -9 15 4 15
40 2 41 -16 16 -31 -49 -31 -39 0 -63 -6 -78 -18 -21 -16 -21 -19 -5 -49 9
-17 25 -36 36 -42 11 -6 20 -16 20 -23 0 -23 26 -50 51 -52 42 -4 44 -5 26
-16 -9 -6 -26 -7 -37 -4 -14 5 -20 2 -20 -9 0 -9 5 -16 12 -16 6 0 31 -10 55
-21 47 -23 70 -19 37 6 -19 14 -19 14 2 15 14 0 24 -8 28 -22 11 -43 6 -64
-23 -92 -25 -24 -36 -28 -70 -24 -23 2 -41 2 -41 0 0 -13 33 -32 56 -32 l27 0
-28 -21 c-23 -19 -26 -26 -20 -58 4 -19 13 -48 21 -63 8 -15 10 -28 5 -28 -5
0 -12 7 -15 16 -10 26 -18 10 -10 -20 5 -21 11 -25 29 -22 15 3 29 -2 37 -12
12 -15 11 -16 -4 -3 -11 8 -18 9 -18 3 0 -6 -6 -9 -14 -6 -7 3 -16 -2 -19 -10
-4 -9 -13 -16 -22 -16 -8 0 -15 -4 -15 -9 0 -17 -41 2 -57 26 -9 14 -22 22
-30 19 -8 -4 -25 7 -40 24 -30 36 -50 40 -27 5 11 -17 13 -29 7 -38 -6 -6 -13
-25 -17 -40 -4 -15 -11 -25 -16 -22 -6 3 -10 0 -10 -8 0 -8 7 -17 15 -21 18
-6 9 -36 -11 -36 -8 0 -14 -4 -14 -10 0 -5 5 -10 10 -10 18 0 11 -26 -14 -53
-20 -22 -22 -28 -10 -38 8 -6 14 -22 14 -35 0 -12 5 -26 10 -29 20 -12 9 -32
-30 -54 -43 -24 -45 -28 -30 -51 6 -10 4 -20 -6 -31 -13 -15 -12 -16 13 -16
15 0 29 -5 30 -10 5 -14 156 -3 165 11 6 8 8 7 8 -1 0 -20 134 -17 150 2 7 9
19 14 26 11 7 -3 15 0 18 7 2 7 5 2 5 -11 1 -20 6 -23 44 -21 23 1 61 -2 84
-6 23 -3 65 -8 95 -10 29 -1 58 -3 64 -4 12 -1 26 -50 17 -63 -2 -5 -12 -4
-22 2 -10 5 -37 11 -60 12 -22 2 -41 7 -41 11 0 5 -3 6 -8 3 -4 -2 -30 0 -57
5 -109 22 -184 28 -345 29 -90 1 -107 -2 -120 -17 -10 -12 -30 -18 -60 -19
-92 -1 -132 -8 -137 -21 -3 -7 -16 -13 -30 -13 -20 0 -23 3 -18 22 6 17 4 20
-9 15 -9 -4 -16 -2 -16 3 0 6 -9 10 -21 10 -11 0 -17 -4 -14 -10 3 -5 2 -10
-4 -10 -5 0 -13 5 -17 11 -3 6 -14 9 -24 6 -11 -3 -28 5 -42 20 -13 14 -18 24
-13 23 26 -6 45 2 45 16 0 14 -8 16 -56 11 -31 -3 -64 -13 -75 -23 -11 -10
-25 -14 -36 -9 -53 21 -225 8 -270 -21 -13 -8 -47 -14 -81 -14 -32 0 -62 -4
-68 -10 -6 -6 -24 -5 -49 1 -78 21 -98 23 -90 9 6 -9 1 -10 -16 -4 -39 12
-204 5 -241 -10 -29 -13 -35 -12 -49 0 -15 13 -21 13 -55 -1 -21 -8 -44 -13
-52 -10 -7 3 -50 -4 -95 -14 -45 -11 -97 -23 -114 -26 -18 -4 -33 -11 -33 -16
0 -6 -9 -7 -20 -4 -11 4 -20 2 -20 -4 0 -6 -7 -11 -15 -11 -8 0 -15 -4 -15 -8
0 -14 23 -32 42 -32 10 0 18 -4 18 -8 0 -5 16 -26 35 -47 19 -22 32 -41 30
-44 -3 -2 4 -10 15 -18 11 -8 20 -22 20 -31 0 -12 3 -13 8 -5 5 8 12 2 21 -18
7 -16 19 -29 26 -29 7 0 15 -7 19 -15 3 -8 17 -20 31 -27 14 -6 25 -20 26 -32
0 -12 3 -15 6 -8 8 20 23 14 23 -10 0 -23 76 -116 88 -109 4 3 17 -11 29 -30
12 -19 29 -42 37 -52 9 -9 16 -21 16 -25 0 -16 45 -60 68 -67 17 -5 20 -10 12
-20 -7 -9 -6 -16 5 -25 8 -7 15 -23 15 -36 0 -12 4 -25 9 -29 12 -7 41 -64 41
-81 0 -7 11 -25 25 -40 13 -14 22 -30 19 -35 -3 -5 3 -9 13 -9 15 0 16 -2 3
-10 -12 -7 -12 -12 -2 -22 6 -6 12 -22 12 -35 0 -13 4 -23 10 -23 5 0 12 -11
16 -25 3 -13 12 -29 20 -36 8 -6 14 -26 14 -44 0 -19 6 -35 14 -38 9 -4 12
-15 8 -33 -3 -15 -1 -24 4 -21 10 6 12 -19 16 -155 2 -72 0 -90 -15 -105 -16
-16 -17 -16 -17 0 0 21 -18 21 -44 2 -11 -8 -28 -15 -38 -15 -10 0 -21 -7 -24
-15 -4 -8 -10 -12 -15 -9 -5 3 -9 -2 -9 -10 0 -33 -18 -14 -35 39 -11 30 -22
55 -26 55 -4 0 -9 9 -12 20 -4 14 -14 20 -35 20 -27 0 -29 3 -27 30 3 37 -18
36 -23 0 l-4 -24 -18 24 -19 25 -9 -25 -10 -25 -7 28 c-6 22 -10 26 -17 15
-10 -13 -5 23 8 56 4 11 1 16 -10 16 -9 0 -16 8 -16 18 0 14 2 15 10 2 8 -12
10 -11 10 8 0 12 5 22 11 22 6 0 9 -9 6 -20 -7 -26 5 -26 22 1 10 17 10 23 1
29 -9 6 -9 13 -1 28 7 12 8 41 4 74 -3 29 -7 64 -7 78 -1 14 -7 24 -13 23 -6
-1 -13 11 -15 27 -3 21 0 30 10 30 11 0 13 12 10 52 -3 52 14 79 25 38 3 -11
0 -20 -6 -20 -7 0 -6 -5 2 -12 11 -11 14 -10 18 0 4 9 8 10 18 2 16 -13 28 1
19 24 -7 19 -24 21 -24 4 0 -7 -10 2 -21 19 -12 18 -25 30 -30 27 -5 -3 -9 -1
-9 5 0 5 -13 12 -29 16 -22 5 -28 11 -28 33 -1 50 -10 83 -31 112 -12 16 -22
35 -22 43 0 7 -18 39 -40 71 -22 31 -40 61 -40 66 0 6 -4 10 -10 10 -5 0 -10
6 -10 14 0 8 -5 16 -11 18 -5 2 -11 11 -13 21 -1 9 -21 35 -44 56 -23 22 -42
44 -42 50 0 5 -5 13 -12 17 -8 5 -9 -2 -4 -27 3 -18 13 -37 21 -42 8 -4 15
-12 15 -18 0 -10 7 -19 52 -68 39 -43 60 -79 53 -91 -3 -5 -1 -10 4 -10 6 0
11 -6 11 -13 0 -7 11 -23 26 -36 18 -16 23 -28 18 -43 -4 -14 -2 -18 5 -14 6
4 11 4 11 1 0 -9 -32 -40 -41 -40 -17 0 -21 -16 -8 -32 11 -15 10 -15 -9 1
-12 11 -22 27 -22 36 0 9 -6 25 -14 36 -10 13 -11 23 -4 31 7 9 7 13 -1 13 -6
0 -11 -4 -11 -9 0 -5 -10 -11 -22 -13 -21 -3 -21 -3 -3 -22 18 -18 18 -18 -1
-14 -11 2 -19 12 -19 23 -1 11 -4 26 -9 33 -4 7 -4 22 -1 35 4 15 3 18 -3 9
-7 -11 -11 -10 -17 5 -4 10 -9 24 -11 31 -1 7 -18 33 -38 57 -20 24 -36 48
-36 53 0 6 -11 24 -25 40 -13 16 -22 32 -18 36 3 3 2 6 -4 6 -6 0 -13 8 -15
18 -3 9 -6 22 -8 27 -1 6 -11 16 -21 23 -11 7 -19 20 -19 28 0 8 -3 14 -8 14
-16 0 -74 61 -69 73 3 9 -3 13 -16 13 -14 -1 -23 7 -27 24 -4 18 -14 26 -34
28 -16 2 -40 11 -53 19 -20 13 -26 14 -36 3 -10 -10 -9 -12 5 -7 12 4 21 -3
30 -23 7 -17 19 -29 27 -27 7 1 22 -15 33 -35 11 -21 25 -38 30 -38 6 0 8 -7
5 -14 -4 -10 -1 -13 9 -9 9 3 14 -2 14 -16 0 -12 5 -21 11 -21 6 0 9 -7 6 -15
-4 -8 -2 -17 4 -21 6 -3 8 -13 5 -21 -4 -11 -2 -13 9 -9 14 5 20 -15 16 -51
-1 -7 3 -13 9 -13 5 0 9 -3 8 -7 -4 -14 33 -74 41 -68 14 8 19 -30 6 -42 -15
-14 -36 3 -29 22 3 7 1 16 -5 20 -6 3 -11 0 -11 -7 0 -9 -3 -9 -10 2 -8 13
-10 13 -10 -2 0 -12 -5 -15 -16 -11 -8 3 -13 12 -10 20 3 8 2 11 -3 8 -5 -3
-13 0 -17 6 -4 7 -3 9 4 5 6 -3 13 -2 17 4 4 6 11 8 16 5 5 -4 9 -1 9 4 0 6
-7 11 -15 11 -15 0 -17 4 -19 50 -1 14 -7 35 -14 47 -6 12 -12 29 -12 37 0 9
-6 15 -12 13 -7 -1 -12 4 -11 11 2 6 -5 12 -15 13 -10 0 -12 3 -4 6 8 3 2 14
-20 33 -18 16 -33 37 -33 46 0 10 -7 20 -15 22 -13 5 -13 3 -1 -12 12 -14 11
-16 -9 -13 -27 4 -42 36 -27 55 13 16 5 24 -17 16 -9 -3 -13 -11 -9 -17 3 -6
1 -7 -6 -3 -6 4 -8 12 -5 18 5 8 1 9 -10 5 -13 -5 -17 -3 -13 7 3 8 -3 22 -13
31 -14 13 -19 13 -23 3 -3 -10 -9 -9 -24 5 -11 9 -28 17 -39 17 -19 1 -19 1 0
15 23 18 58 19 73 4 6 -6 39 -14 73 -18 55 -7 63 -5 75 12 13 18 15 18 20 4 4
-8 12 -14 20 -11 7 3 15 -2 19 -11 4 -13 10 -14 26 -5 14 8 20 8 20 0 0 -6 4
-8 10 -5 6 3 10 0 10 -8 0 -9 17 -19 40 -25 22 -5 40 -7 40 -4 0 10 -83 92
-93 92 -5 0 -21 9 -36 19 -38 27 -127 60 -183 67 -27 4 -48 11 -48 16 0 5 10
6 22 2 20 -6 21 -5 9 10 -8 10 -21 14 -32 11 -12 -4 -19 -1 -19 7 0 27 -99 50
-225 52 -35 1 -49 -3 -48 -11 4 -20 -25 -15 -37 6 -9 19 -19 20 -50 8 -8 -3
-28 -8 -43 -11 -15 -4 -54 -31 -85 -61 -31 -30 -60 -55 -65 -55 -5 0 -35 -27
-68 -60 -32 -33 -65 -60 -71 -60 -17 0 -154 -142 -238 -245 -36 -44 -72 -80
-80 -80 -8 0 -17 -3 -20 -6 -9 -10 -135 -27 -170 -23 -88 11 -217 6 -261 -9
-26 -9 -56 -13 -68 -10 -11 3 -32 -2 -46 -11 -16 -11 -42 -15 -76 -14 -34 2
-54 -2 -57 -10 -2 -7 -21 -12 -42 -12 -21 0 -41 -4 -44 -9 -4 -5 -24 -12 -45
-16 -22 -4 -45 -13 -52 -21 -6 -8 -24 -14 -40 -14 -15 0 -31 -4 -34 -10 -3 -5
-13 -10 -21 -10 -9 0 -40 -11 -70 -25 -30 -14 -64 -25 -74 -25 -11 0 -38 -11
-60 -25 -22 -14 -45 -25 -52 -25 -8 0 -30 -11 -50 -25 -20 -14 -44 -25 -53
-25 -9 0 -29 -10 -45 -22 l-30 -22 0 -1013 c0 -735 3 -1012 11 -1007 8 5 8 1
0 -14 -7 -14 -11 -152 -11 -431 0 -388 1 -411 18 -411 12 0 26 -19 43 -56 l26
-56 -43 -21 -44 -21 0 -723 0 -723 3528 0 3529 0 -23 100 c-30 134 -42 241
-48 445 -18 546 -21 672 -20 885 1 129 4 264 8 300 3 36 9 101 12 145 3 44 12
134 20 200 8 66 18 149 21 185 3 36 9 70 13 75 4 6 10 28 14 50 16 91 98 332
119 346 4 3 7 10 5 15 -3 11 53 237 61 244 3 3 7 26 7 51 1 25 14 107 29 183
15 76 28 156 29 177 1 30 5 39 19 39 13 0 17 -5 13 -17 -3 -10 -6 -38 -8 -62
-2 -42 -1 -45 27 -53 39 -10 45 -2 52 66 4 38 10 56 20 56 9 0 12 -8 9 -22 -3
-13 -8 -111 -11 -218 -4 -140 -10 -199 -19 -208 -15 -15 -76 -19 -121 -8 -17
4 -25 4 -18 -1 22 -16 2 -123 -23 -123 -17 0 -18 -17 -1 -23 7 -3 5 -6 -5 -6
-21 -1 -24 -17 -5 -24 8 -4 7 -6 -3 -6 -8 -1 -20 -13 -26 -28 -6 -16 -23 -57
-38 -92 -20 -50 -23 -67 -14 -73 10 -6 9 -8 -3 -8 -9 0 -21 -18 -31 -49 -15
-46 -15 -50 1 -54 13 -4 11 -6 -6 -12 -21 -7 -28 -21 -21 -42 2 -5 6 -7 10 -6
5 2 8 -2 8 -7 0 -6 -7 -10 -15 -10 -18 0 -20 -16 -2 -23 7 -3 5 -6 -5 -6 -10
-1 -18 -5 -18 -10 0 -5 8 -12 18 -14 13 -4 11 -5 -5 -6 -13 0 -23 -6 -23 -12
0 -6 7 -9 15 -5 9 3 15 0 15 -9 0 -9 -10 -16 -22 -16 -17 -1 -19 -2 -5 -6 21
-5 23 -23 2 -23 -8 0 -15 -4 -15 -10 0 -5 7 -10 15 -10 10 0 13 -9 10 -32 -3
-18 -7 -53 -10 -78 -3 -25 -7 -54 -9 -65 -2 -11 2 -23 8 -27 8 -5 7 -8 -1 -8
-7 0 -13 -7 -13 -15 0 -8 6 -15 13 -15 8 0 8 -3 -2 -9 -8 -5 -11 -16 -8 -24 3
-9 1 -17 -6 -20 -8 -2 -7 -9 5 -20 21 -22 32 -22 24 -1 -4 9 -1 23 5 30 9 11
8 14 -5 14 -16 0 -16 2 -2 15 8 8 22 15 30 15 9 0 16 5 16 10 0 6 -11 8 -27 4
-25 -7 -27 -6 -14 9 7 10 20 17 27 17 8 0 14 4 14 9 0 4 -12 6 -27 3 -27 -5
-27 -5 -9 13 12 13 15 20 7 23 -9 3 -9 7 -1 17 6 8 18 11 26 8 8 -3 14 0 14 6
0 6 -9 11 -21 11 -11 0 -17 5 -14 10 3 6 15 10 26 10 10 0 19 5 19 11 0 7 -10
9 -25 7 -21 -4 -23 -3 -13 9 6 8 18 11 25 8 9 -3 13 0 10 7 -2 7 -10 12 -16
11 -6 -2 -11 2 -11 7 0 6 9 10 20 10 11 0 20 5 20 10 0 6 -9 10 -21 10 -12 0
-17 4 -14 11 4 6 13 8 21 5 7 -3 16 -1 19 4 4 6 -3 10 -14 10 -12 0 -21 5 -21
10 0 6 10 10 23 10 21 1 21 1 4 15 -18 13 -17 14 5 18 l23 4 -22 8 c-13 4 -20
11 -18 16 3 4 12 6 20 2 8 -3 15 0 15 6 0 6 -7 11 -15 11 -8 0 -15 5 -15 11 0
6 9 9 20 6 25 -6 26 8 3 22 -16 9 -15 10 7 11 24 1 24 1 6 15 -19 15 -19 15 5
15 24 1 24 1 4 17 -16 12 -16 14 -3 10 24 -8 32 9 11 23 -11 7 -12 10 -3 7 8
-2 21 9 30 27 15 28 15 32 1 45 -14 12 -14 13 1 8 24 -8 79 100 57 114 -11 7
-10 9 4 9 10 0 15 5 12 10 -3 6 0 10 7 10 8 1 6 6 -5 15 -18 13 -17 14 5 17
l23 5 -25 12 c-23 11 -23 11 -3 7 29 -5 39 9 16 24 -17 11 -17 11 0 6 11 -3
17 0 17 9 0 8 -8 15 -17 16 -12 1 -9 4 7 9 22 6 23 8 8 15 -21 9 -14 27 7 18
8 -3 15 0 15 6 0 6 -9 11 -21 11 -12 0 -17 4 -14 11 4 6 13 8 21 5 7 -3 16 -1
19 4 10 15 25 12 25 -6 0 -24 -43 -159 -99 -311 -17 -46 -27 -83 -24 -83 4 0
2 -5 -5 -12 -15 -15 -16 -54 -2 -63 6 -4 3 -13 -9 -23 -26 -24 -41 -74 -29
-97 7 -12 7 -16 0 -11 -22 13 -41 -92 -57 -304 -3 -47 -11 -139 -16 -205 -14
-159 -19 -552 -9 -690 9 -115 16 -327 25 -675 5 -175 21 -353 40 -437 l5 -23
1105 0 1105 0 0 2745 c0 2427 -2 2745 -15 2745 -8 0 -15 5 -15 11 0 6 -8 8
-19 4 -15 -5 -22 1 -31 30 -6 19 -29 53 -50 75 -26 27 -40 53 -45 80 -4 25
-14 44 -26 51 -13 7 -18 16 -14 29 4 12 -3 24 -19 38 -14 10 -22 22 -19 26 3
3 1 6 -5 6 -6 0 -24 12 -39 26 -30 28 -85 54 -113 54 -10 0 -23 7 -30 15 -7 9
-19 14 -26 11 -7 -3 -16 -1 -19 3 -3 5 -33 12 -67 16 -35 4 -69 12 -75 17 -8
7 -49 8 -110 3 -81 -5 -146 -10 -217 -14 -4 -1 -6 -10 -3 -21 3 -11 2 -18 -3
-15 -4 2 -7 -7 -7 -20 0 -22 2 -24 16 -13 15 12 15 11 1 -7 -8 -11 -21 -24
-28 -28 -10 -7 -10 -12 -1 -23 10 -12 9 -13 -6 -8 -13 5 -16 4 -11 -5 5 -7 1
-20 -7 -29 -8 -9 -15 -30 -15 -45 0 -15 -6 -35 -14 -45 -9 -9 -13 -22 -11 -29
2 -6 -5 -14 -16 -18 -12 -3 -21 -11 -21 -17 0 -6 -6 -6 -15 2 -21 17 -19 27 8
35 12 3 17 8 11 11 -7 3 0 27 20 66 22 43 27 62 19 65 -7 3 -13 9 -13 14 0 6
4 8 9 5 11 -7 26 12 36 44 l7 25 -17 -22 c-9 -13 -20 -23 -25 -23 -14 0 1 32
27 59 24 24 32 48 12 35 -8 -4 -9 1 -4 17 5 13 9 35 9 49 1 14 9 34 18 44 10
10 15 23 11 29 -3 5 -1 12 5 16 6 3 13 24 17 46 l8 40 -21 -25 c-20 -24 -21
-24 -22 -4 0 11 3 24 7 28 4 4 8 41 9 83 1 46 -2 70 -7 62 -6 -9 -8 -4 -6 16
2 25 -2 30 -20 29 -13 0 -24 2 -24 5 -1 3 -3 19 -5 34 -1 16 -10 40 -19 53
-15 23 -15 25 11 34 19 8 31 7 38 0 5 -5 18 -10 28 -10 10 0 18 -7 18 -15 0
-8 5 -15 10 -15 6 0 10 5 10 11 0 6 6 9 14 6 8 -3 17 1 20 9 9 24 8 26 -15 13
-20 -10 -21 -9 -16 10 3 15 1 21 -8 19 -8 -2 -15 2 -17 7 -2 6 7 11 20 13 15
2 22 -2 22 -12 0 -26 30 -18 40 10 6 14 10 30 10 35 0 17 -17 9 -28 -13 -10
-21 -11 -22 -11 -3 -1 29 11 44 34 42 12 -1 20 5 23 18 2 16 1 17 -7 5 -5 -8
-13 -11 -16 -8 -4 4 0 17 9 30 9 12 16 17 16 10 0 -6 9 -12 20 -12 12 0 20 7
20 18 0 14 -2 15 -10 2 -8 -13 -10 -13 -10 1 0 9 7 19 15 23 13 5 13 9 3 26
-13 20 -13 20 -18 -2 -3 -12 -11 -23 -18 -26 -8 -2 -10 2 -5 14 5 13 3 15 -7
9 -10 -6 -12 -4 -7 9 5 13 3 17 -6 13 -16 -6 -11 66 9 110 19 42 18 56 -5 48
-10 -3 -23 0 -29 8 -9 10 -5 13 16 12 42 -1 58 30 20 38 l-23 4 23 8 c12 4 22
14 22 21 0 8 7 14 15 14 9 0 15 9 15 25 0 14 -5 25 -11 25 -7 0 -10 17 -7 45
3 43 3 44 -19 30 -12 -8 -30 -15 -40 -14 -11 0 -13 3 -5 6 17 7 15 23 -4 23
-13 0 -14 3 -5 14 11 13 14 34 20 134 1 6 6 12 12 12 8 0 10 -20 5 -69 -8 -74
-2 -87 29 -65 17 13 17 14 1 14 -9 0 -15 4 -12 8 3 5 6 25 8 45 2 30 6 37 23
37 29 0 37 -10 24 -27 -9 -9 -8 -13 0 -13 6 0 11 6 11 13 0 8 4 7 10 -3 14
-22 12 -3 -2 22 -15 25 -34 48 -42 48 -2 0 -6 -6 -9 -12 -2 -7 -3 -5 -2 4 2
10 -1 21 -6 24 -14 8 0 24 16 17 12 -4 15 4 15 36 l0 41 -25 -16 c-29 -19 -32
-26 -9 -17 12 4 15 2 12 -8 -3 -8 -12 -13 -20 -11 -11 1 -15 -6 -14 -25 0 -14
-4 -28 -10 -30 -9 -3 -11 15 -9 59 l3 63 -19 -24 c-11 -13 -22 -21 -26 -18 -3
4 0 13 7 22 8 10 9 15 1 15 -6 0 -11 5 -11 11 0 7 10 9 26 5 15 -4 23 -3 20 3
-10 15 5 43 20 37 8 -3 18 4 24 14 6 12 7 20 1 20 -5 0 -14 12 -19 28 -8 21
-11 23 -11 7 -1 -16 -3 -17 -10 -6 -5 8 -8 30 -5 47 2 18 0 35 -5 38 -12 8
-22 -20 -14 -41 5 -14 3 -15 -6 -7 -14 13 -6 100 10 110 5 3 9 13 8 22 0 11
-3 12 -6 5 -7 -18 -23 -16 -23 2 0 8 -4 15 -10 15 -5 0 -10 -9 -10 -20 0 -11
-4 -20 -10 -20 -12 0 -12 2 0 34 6 17 14 24 25 20 10 -4 15 0 15 10 0 10 -7
16 -16 14 -14 -2 -17 7 -18 49 -1 29 -5 55 -9 59 -4 4 -7 0 -7 -10 0 -16 -1
-16 -16 -2 -8 9 -13 19 -11 23 3 5 1 18 -4 31 -7 18 -14 22 -30 17 -18 -6 -21
-4 -17 12 3 11 -1 28 -8 38 -9 12 -10 22 -4 30 6 7 4 21 -5 38 -33 61 -41 74
-62 103 -12 17 -19 35 -15 39 4 5 2 5 -4 2 -7 -4 -14 0 -18 8 -3 8 -10 15 -16
15 -15 0 -2 -42 18 -57 14 -12 14 -13 -1 -13 -19 0 -58 -20 -69 -35 -4 -6 -8
-2 -8 8 0 10 7 20 15 23 16 7 21 34 6 34 -6 0 -6 12 0 32 6 22 6 34 -1 36 -5
2 -7 14 -4 27 3 12 1 26 -5 29 -6 4 -11 1 -11 -6 0 -7 -11 -23 -25 -36 l-24
-23 2 48 c2 48 2 48 -33 53 -22 3 -35 10 -35 20 0 18 -41 26 -59 11 -14 -12
-36 4 -36 25 0 7 -10 9 -25 6 -14 -2 -40 2 -58 9 -17 7 -43 12 -56 10 -14 -2
-21 1 -17 8 7 11 -19 19 -63 20 -36 0 -50 19 -27 37 19 14 19 14 -4 14 -23 0
-23 0 -4 15 17 13 14 14 -43 15 -40 0 -63 4 -63 11 0 7 -9 9 -21 6 -11 -3 -37
0 -57 7 -20 7 -61 16 -89 20 -48 6 -53 5 -53 -13 0 -24 -13 -33 -35 -25 -15 6
-14 9 6 20 19 10 20 13 7 14 -10 0 -18 5 -18 10 0 6 -5 10 -11 10 -5 0 -7 -5
-3 -12z m164 -41 c0 -13 -39 -37 -60 -37 -15 0 1 39 19 43 31 9 41 7 41 -6z
m89 -29 c-5 -10 -14 -18 -19 -18 -4 0 -15 -3 -23 -6 -11 -4 -13 1 -10 20 4 21
10 26 33 24 24 -2 27 -5 19 -20z m-59 4 c0 -12 -22 -32 -34 -32 -6 0 -3 5 7
11 9 6 15 14 12 20 -4 5 -1 9 4 9 6 0 11 -4 11 -8z m158 -24 c3 -13 -3 -18
-21 -18 -14 0 -34 -3 -44 -6 -15 -5 -16 -4 -3 6 11 9 12 13 2 17 -22 9 -3 21
30 20 22 -1 34 -8 36 -19z m627 -409 c-8 -12 14 -51 26 -44 5 4 9 2 9 -3 0 -5
-10 -12 -21 -15 -32 -8 -60 29 -46 60 8 17 7 27 -1 35 -7 7 -12 17 -12 23 0 5
12 -3 25 -18 14 -16 23 -33 20 -38z m122 -331 c-3 -8 -6 -5 -6 6 -1 11 2 17 5
13 3 -3 4 -12 1 -19z m-17 -112 c0 -3 -4 -8 -10 -11 -5 -3 -10 -1 -10 4 0 6 5
11 10 11 6 0 10 -2 10 -4z m88 -106 c0 -16 -1 -30 -3 -30 -2 0 -8 14 -14 30
-8 23 -7 30 3 30 8 0 13 -13 14 -30z m-43 -26 c0 -37 -6 -42 -24 -20 -8 10 -9
16 -1 21 5 3 10 16 10 27 0 12 3 18 7 14 4 -4 8 -23 8 -42z m40 -155 c11 -16
1 -19 -13 -3 -7 8 -8 14 -3 14 5 0 13 -5 16 -11z m-7 -42 c2 -9 -2 -17 -8 -17
-6 0 -8 5 -5 10 3 6 1 10 -4 10 -6 0 -11 5 -11 11 0 17 25 4 28 -14z m-58 -51
c0 -3 -4 -8 -10 -11 -5 -3 -10 -1 -10 4 0 6 5 11 10 11 6 0 10 -2 10 -4z
m-3457 -29 c-4 -6 -8 -22 -9 -36 -5 -43 -20 -45 -49 -6 -30 38 -27 51 15 57
33 5 52 -1 43 -15z m3507 -17 c0 -5 -4 -10 -10 -10 -5 0 -10 5 -10 10 0 6 5
10 10 10 6 0 10 -4 10 -10z m-75 -80 c-3 -5 -11 -10 -16 -10 -6 0 -7 5 -4 10
3 6 11 10 16 10 6 0 7 -4 4 -10z m145 -55 c0 -14 -4 -25 -9 -25 -12 0 -23 29
-15 41 10 18 24 9 24 -16z m-55 -33 c-3 -8 -5 -23 -5 -34 0 -40 -11 -10 -14
37 -2 42 -1 46 11 29 7 -10 11 -25 8 -32z m-3593 -11 c-8 -4 -13 -11 -13 -15
3 -18 0 -26 -9 -26 -5 0 -10 11 -10 25 0 19 5 25 23 25 16 0 18 -3 9 -9z
m3638 -25 c0 -8 -6 -19 -14 -25 -12 -10 -14 -8 -11 16 2 15 4 29 4 31 2 9 21
-11 21 -22z m-48 -41 c0 -5 -5 -11 -11 -13 -6 -2 -11 4 -11 13 0 9 5 15 11 13
6 -2 11 -8 11 -13z m-32 -65 c0 -5 -2 -10 -4 -10 -3 0 -8 5 -11 10 -3 6 -1 10
4 10 6 0 11 -4 11 -10z m35 -100 c3 -5 -1 -10 -10 -10 -9 0 -13 5 -10 10 3 6
8 10 10 10 2 0 7 -4 10 -10z m-3715 -199 c0 -4 -9 -16 -20 -26 -18 -17 -19
-16 -25 8 -9 35 1 50 26 37 10 -6 19 -14 19 -19z m55 -73 c14 -6 25 -15 25
-20 0 -5 4 -7 9 -4 5 3 15 -1 22 -10 11 -13 9 -14 -17 -8 -16 4 -32 12 -36 18
-5 8 -8 7 -8 -1 0 -16 -26 -17 -35 -3 -7 11 0 40 9 40 3 0 17 -5 31 -12z
m3461 -13 c-11 -8 -15 -15 -9 -15 9 0 15 -12 27 -50 1 -3 5 -10 9 -16 4 -7 0
-14 -8 -18 -10 -3 -15 1 -15 14 0 10 -6 23 -13 27 -41 24 -35 72 8 72 20 0 20
0 1 -14z m54 5 c0 -5 -4 -10 -10 -10 -5 0 -10 5 -10 10 0 6 5 10 10 10 6 0 10
-4 10 -10z m-117 -26 c3 -3 3 -12 0 -20 -4 -11 -9 -12 -19 -3 -8 6 -11 15 -8
20 6 10 18 12 27 3z m-3228 -50 c11 -11 13 -20 6 -27 -7 -7 -7 -16 1 -30 7
-15 7 -22 -3 -28 -22 -14 -26 -11 -25 24 0 17 -3 42 -7 55 -10 26 4 29 28 6z
m19 -109 c-4 -8 -12 -15 -19 -15 -7 0 -15 -14 -19 -31 -3 -17 -10 -28 -16 -24
-5 3 -10 2 -10 -4 0 -5 6 -11 13 -14 23 -8 -3 -20 -55 -25 l-53 -5 67 67 c62
62 105 86 92 51z m3354 -2 c-1 -10 1 -24 5 -30 6 -9 3 -11 -8 -7 -9 4 -14 13
-11 21 3 8 6 19 6 24 0 5 3 9 6 9 3 0 4 -8 2 -17z m-3518 -13 c-8 -5 -22 -10
-31 -10 -9 0 -22 -7 -30 -16 -11 -13 -9 -14 17 -8 27 6 28 6 9 -9 -17 -13 -22
-13 -42 0 -20 13 -35 51 -15 40 4 -3 25 -1 47 3 57 11 62 11 45 0z m258 -172
c18 -18 15 -28 -8 -28 -13 0 -20 7 -20 20 0 23 10 26 28 8z m-110 -33 c0 -19
-4 -35 -8 -35 -9 0 -20 51 -13 62 11 19 21 5 21 -27z m-8 -80 c0 -2 -10 -9
-22 -15 -22 -11 -22 -10 -4 4 21 17 26 19 26 11z m3470 -185 c0 -5 -5 -10 -11
-10 -5 0 -7 5 -4 10 3 6 8 10 11 10 2 0 4 -4 4 -10z m-3327 -35 c32 -8 55 -20
52 -25 -4 -6 -11 -10 -16 -10 -6 0 -17 -7 -25 -15 -13 -13 -12 -14 15 -9 26 6
29 4 24 -14 -2 -11 1 -31 8 -43 7 -13 14 -39 16 -58 2 -27 0 -31 -11 -22 -7 6
-15 9 -18 6 -2 -3 -27 19 -54 48 -52 53 -76 86 -56 73 6 -3 13 -2 17 4 3 5 3
10 -2 10 -4 0 -13 12 -20 26 -9 20 -9 23 0 16 7 -5 20 -12 30 -15 15 -6 16 -4
7 13 -6 11 -13 20 -16 20 -3 0 -2 -6 2 -12 4 -7 -3 -4 -17 7 -13 11 -26 22
-29 24 -5 4 0 2 93 -24z m3172 -48 c-8 -12 -15 -34 -15 -49 0 -18 -5 -28 -15
-28 -17 0 -19 12 -4 27 5 5 11 21 13 34 3 32 15 51 27 44 5 -4 3 -15 -6 -28z
m-3335 -32 c0 -8 20 -56 44 -107 24 -51 55 -119 70 -150 19 -44 38 -67 76 -94
27 -20 50 -38 50 -40 0 -9 -43 18 -78 50 -21 18 -46 38 -57 44 -11 6 -39 43
-62 84 -55 96 -59 108 -38 108 18 0 16 13 -11 79 -17 40 -18 54 -4 46 6 -3 10
-13 10 -20z m0 -85 c0 -5 -7 -7 -15 -4 -8 4 -15 8 -15 10 0 2 7 4 15 4 8 0 15
-4 15 -10z m-61 -103 c24 -6 34 -56 13 -65 -9 -3 -18 0 -20 7 -3 8 -12 21 -22
31 -25 25 -32 50 -15 56 8 4 16 14 17 23 0 9 3 2 5 -15 3 -20 11 -34 22 -37z
m-125 -38 c-3 -5 -10 -7 -15 -3 -5 3 -7 10 -3 15 3 5 10 7 15 3 5 -3 7 -10 3
-15z m-60 -8 c3 -5 0 -11 -8 -14 -15 -6 -26 1 -26 15 0 11 27 10 34 -1z m828
-69 c-15 -50 -16 -73 -2 -52 6 9 10 10 10 3 0 -7 -7 -16 -15 -21 -9 -4 -18
-23 -20 -41 -11 -83 -26 -147 -38 -156 -8 -5 -17 -17 -20 -25 -18 -40 7 135
29 210 39 127 45 143 57 131 7 -7 7 -23 -1 -49z m-762 33 c0 -8 -4 -15 -10
-15 -5 0 -10 7 -10 15 0 8 5 15 10 15 6 0 10 -7 10 -15z m96 -20 c-5 -14 -9
-15 -21 -5 -12 10 -13 16 -4 27 15 18 34 1 25 -22z m-105 -48 c-1 -12 -15 -9
-19 4 -3 6 1 10 8 8 6 -3 11 -8 11 -12z m279 -36 c0 -21 -13 -41 -27 -41 -10
0 -13 6 -9 16 3 9 6 20 6 25 0 5 7 9 15 9 8 0 15 -4 15 -9z m4229 -33 c-1 -31
-1 -31 -8 -8 -5 14 -6 28 -4 33 9 15 13 6 12 -25z m-6923 -14 c-3 -9 -6 -18
-6 -20 0 -3 -4 -3 -10 1 -11 7 -2 35 12 35 6 0 7 -7 4 -16z m2767 -10 c-8 -21
-33 -17 -33 5 0 14 5 18 19 14 12 -3 17 -11 14 -19z m4164 -46 c-3 -7 -5 -2
-5 12 0 14 2 19 5 13 2 -7 2 -19 0 -25z m-5080 -30 c5 -35 -19 -38 -41 -6 -18
26 -12 40 17 36 14 -2 22 -12 24 -30z m443 -2 c0 -3 -4 -8 -10 -11 -5 -3 -10
-1 -10 4 0 6 5 11 10 11 6 0 10 -2 10 -4z m163 -3 c-7 -2 -19 -2 -25 0 -7 3
-2 5 12 5 14 0 19 -2 13 -5z m4487 -3 c0 -5 -4 -10 -10 -10 -5 0 -10 5 -10 10
0 6 5 10 10 10 6 0 10 -4 10 -10z m-5135 -40 c7 -11 -23 -56 -42 -64 -19 -8
-43 4 -43 20 0 8 11 20 25 26 14 6 25 15 25 20 0 11 28 10 35 -2z m-1869 -12
c12 -12 -8 -29 -27 -23 -11 4 -26 2 -32 -4 -9 -7 -16 -5 -25 9 -10 16 -9 18 5
13 10 -4 14 -2 10 4 -7 11 58 12 69 1z m1944 2 c0 -5 -2 -10 -4 -10 -3 0 -8 5
-11 10 -3 6 -1 10 4 10 6 0 11 -4 11 -10z m1094 -52 c-3 -4 -13 -8 -22 -8 -23
0 -151 -38 -184 -55 -16 -8 -28 -11 -28 -7 0 5 -15 7 -32 6 -26 -1 -27 0 -5 3
15 2 27 9 27 14 0 6 4 8 9 5 5 -4 13 8 17 26 4 18 9 27 12 20 3 -10 8 -7 19 7
15 23 38 18 29 -5 -7 -19 2 -18 56 10 38 19 46 21 41 7 -4 -13 -2 -13 7 2 6 9
8 23 4 30 -4 6 7 -1 24 -17 17 -16 29 -33 26 -38z m3987 43 l21 -19 -21 -7
c-12 -3 -19 -11 -16 -16 4 -5 2 -9 -3 -9 -6 0 -12 7 -16 15 -3 8 -1 15 5 15 6
0 8 9 4 20 -8 25 0 25 26 1z m-7211 -31 c0 -5 -13 -10 -29 -10 -17 0 -33 5
-36 10 -4 6 8 10 29 10 20 0 36 -4 36 -10z m200 -10 c0 -4 -7 -10 -15 -14 -8
-3 -15 -1 -15 5 0 6 -4 8 -9 5 -5 -3 -14 0 -19 7 -9 10 -4 12 23 9 19 -2 35
-8 35 -12z m2500 11 c0 -6 -4 -12 -8 -15 -5 -3 -9 1 -9 9 0 8 4 15 9 15 4 0 8
-4 8 -9z m-2780 -10 c0 -4 -12 -7 -26 -5 -38 4 -42 14 -6 14 18 0 32 -4 32 -9z
m2963 -33 c-10 -18 -20 -6 -15 19 5 24 6 25 12 8 4 -11 6 -23 3 -27z m-170 20
c-4 -7 -8 -19 -9 -26 -2 -8 -6 -17 -10 -20 -4 -4 -4 1 -1 11 4 10 2 17 -5 17
-7 0 -3 7 8 15 24 18 27 18 17 3z m67 1 c0 -6 7 -18 16 -26 13 -13 13 -18 2
-24 -19 -10 -114 -23 -105 -14 4 5 17 9 29 10 13 1 23 8 24 16 1 33 34 70 34
38z m-783 -25 c-9 -9 -28 6 -21 18 4 6 10 6 17 -1 6 -6 8 -13 4 -17z m178 -22
c-8 -9 -35 20 -28 31 4 6 11 3 19 -8 8 -10 12 -21 9 -23z m-1985 18 c0 -5 -4
-10 -10 -10 -5 0 -10 5 -10 10 0 6 5 10 10 10 6 0 10 -4 10 -10z m2693 -17
c-13 -2 -33 -2 -45 0 -13 2 -3 4 22 4 25 0 35 -2 23 -4z m-958 -33 c3 -6 -1
-7 -9 -4 -18 7 -21 14 -7 14 6 0 13 -4 16 -10z m-1518 -52 c-3 -8 -6 -5 -6 6
-1 11 2 17 5 13 3 -3 4 -12 1 -19z m6723 2 c0 -5 -4 -10 -10 -10 -5 0 -10 5
-10 10 0 6 5 10 10 10 6 0 10 -4 10 -10z m-6692 -19 c-7 -11 -16 -18 -20 -15
-4 3 -2 11 5 19 18 21 29 18 15 -4z m1613 -19 c5 -13 7 -28 3 -31 -4 -3 -9 0
-11 7 -3 6 -10 12 -17 12 -20 0 -50 26 -43 37 12 19 58 2 68 -25z m-1585 -69
c-3 -3 -12 2 -20 10 -12 11 -13 16 -3 20 13 4 33 -21 23 -30z m54 -75 c0 -12
-7 -10 -24 8 -9 8 -16 23 -16 32 0 13 5 11 20 -8 11 -14 20 -28 20 -32z m1780
11 c0 -6 -4 -7 -10 -4 -5 3 -10 11 -10 16 0 6 5 7 10 4 6 -3 10 -11 10 -16z
m-112 -124 c-3 -3 -9 2 -12 12 -6 14 -5 15 5 6 7 -7 10 -15 7 -18z m-58 -26
c0 -6 -4 -7 -10 -4 -5 3 -10 11 -10 16 0 6 5 7 10 4 6 -3 10 -11 10 -16z m350
-53 c0 -6 -5 -3 -11 6 -5 9 -16 15 -23 12 -8 -3 -17 -1 -21 5 -4 7 0 8 11 4
13 -5 15 -3 9 8 -5 8 1 5 13 -5 12 -11 22 -24 22 -30z m-16 -31 c-4 -8 -8 -15
-10 -15 -2 0 -4 7 -4 15 0 8 4 15 10 15 5 0 7 -7 4 -15z m-142 -47 c-5 -21 -6
-21 -12 -2 -8 21 -3 37 10 29 4 -3 6 -15 2 -27z m-536 -15 c-8 -8 -56 6 -56
17 0 15 55 17 58 2 2 -8 1 -16 -2 -19z m-771 -12 c3 -5 1 -12 -4 -16 -6 -3 -7
-13 -4 -22 4 -11 3 -14 -5 -9 -14 9 -16 56 -3 56 6 0 12 -4 16 -9z m1185 -6
c0 -8 -4 -15 -10 -15 -5 0 -10 7 -10 15 0 8 5 15 10 15 6 0 10 -7 10 -15z
m-1407 -2 c-7 -2 -19 -2 -25 0 -7 3 -2 5 12 5 14 0 19 -2 13 -5z m1604 -95
c-3 -8 -6 -5 -6 6 -1 11 2 17 5 13 3 -3 4 -12 1 -19z m-30 -33 c0 -8 -4 -15
-9 -15 -4 0 -8 7 -8 15 0 8 4 15 8 15 5 0 9 -7 9 -15z m-485 -47 c-7 -7 -12
-8 -12 -2 0 6 3 14 7 17 3 4 9 5 12 2 2 -3 -1 -11 -7 -17z m1028 18 c0 -2 -12
-12 -27 -21 l-28 -18 19 21 c17 20 36 29 36 18z m-1122 -18 c21 -21 13 -32
-10 -12 -21 19 -21 19 -14 -1 5 -15 4 -17 -5 -8 -11 11 -5 33 10 33 4 0 12 -5
19 -12z m1052 -2 c0 -11 -19 -15 -25 -6 -3 5 1 10 9 10 9 0 16 -2 16 -4z
m-986 -43 c4 -10 1 -10 -14 -1 -11 7 -22 18 -24 25 -4 10 -1 10 14 1 11 -7 22
-18 24 -25z m981 8 c-6 -5 -21 -12 -35 -15 l-25 -7 25 15 c28 17 50 21 35 7z
m-1750 -31 c3 -5 1 -10 -4 -10 -6 0 -11 5 -11 10 0 6 2 10 4 10 3 0 8 -4 11
-10z m1684 6 c-2 -2 -15 -9 -29 -15 -24 -11 -24 -11 -6 3 16 13 49 24 35 12z
m-305 -40 c-3 -8 -14 -16 -25 -19 -14 -4 -19 0 -19 15 0 10 4 17 9 13 5 -3 12
-1 16 5 9 15 25 2 19 -14z m245 10 c-2 -2 -15 -9 -29 -15 -24 -11 -24 -11 -6
3 16 13 49 24 35 12z m3450 -10 c10 -11 8 -16 -9 -21 -46 -14 -69 -13 -62 4
12 32 51 42 71 17z m-5064 -6 c3 -5 -1 -10 -10 -10 -9 0 -13 5 -10 10 3 6 8
10 10 10 2 0 7 -4 10 -10z m1272 -22 c-3 -8 -6 -5 -6 6 -1 11 2 17 5 13 3 -3
4 -12 1 -19z m278 2 c-3 -5 -12 -10 -18 -10 -7 0 -6 4 3 10 19 12 23 12 15 0z
m-1528 -60 c12 0 13 -3 4 -13 -6 -8 -9 -16 -7 -18 2 -2 -2 -10 -10 -17 -12
-11 -14 -10 -14 4 0 10 -3 15 -6 11 -4 -3 -1 -20 5 -38 8 -24 8 -36 0 -45 -9
-11 -7 -14 10 -14 14 0 21 6 21 20 0 11 -4 20 -10 20 -15 0 -12 17 3 23 10 4
14 -5 15 -31 1 -35 -10 -52 -35 -52 -22 0 -35 67 -22 112 4 16 3 30 -2 33 -5
4 -9 13 -9 21 0 8 4 13 9 10 5 -3 12 2 17 12 6 14 8 12 12 -10 2 -17 9 -28 19
-28z m4918 -5 c-31 -26 -118 -85 -220 -149 -33 -21 -72 -47 -87 -57 -16 -11
-28 -18 -28 -15 0 2 -3 12 -7 21 -5 14 -2 16 16 10 21 -6 22 -4 16 17 -6 19
-5 21 6 11 20 -19 31 -15 24 8 -6 18 -4 20 16 14 17 -6 21 -4 16 9 -7 18 8 32
18 16 10 -16 25 -2 18 16 -5 13 -1 15 16 9 20 -6 22 -4 16 14 -4 12 -2 21 4
21 6 0 11 -4 11 -10 0 -5 5 -10 10 -10 6 0 10 9 10 21 0 15 4 19 19 14 16 -5
18 -2 14 15 -6 23 6 26 26 8 10 -11 12 -9 9 7 -2 15 2 19 19 18 16 -2 21 2 17
12 -7 18 7 20 24 3 9 -9 12 -7 12 12 0 23 1 23 17 7 17 -17 16 -19 -12 -42z
m-3113 8 c-6 -2 -9 -10 -5 -16 4 -7 0 -8 -11 -4 -10 4 -16 2 -15 -6 4 -34 -15
-57 -55 -68 -49 -13 -132 -57 -201 -108 -56 -41 -102 -62 -190 -86 -33 -9 -73
-24 -90 -32 -70 -35 -2 9 80 52 50 27 124 72 165 101 76 54 301 175 323 173 8
0 8 -2 -1 -6z m-422 -17 c0 -2 -7 -7 -16 -10 -8 -3 -12 -2 -9 4 6 10 25 14 25
6z m-51 -29 c-2 -1 -13 -9 -24 -17 -19 -14 -19 -14 -6 3 7 9 18 17 24 17 6 0
8 -1 6 -3z m4786 -19 c-3 -32 -3 -32 -21 -17 -14 12 -14 14 2 26 23 17 22 17
19 -9z m-5248 -5 c7 -20 -33 -35 -47 -18 -6 8 -9 18 -6 23 8 13 49 9 53 -5z
m393 -10 c0 -10 -42 -53 -52 -53 -4 0 -8 12 -8 26 0 14 4 23 10 19 6 -3 10 -1
10 4 0 6 9 11 20 11 11 0 20 -3 20 -7z m-340 -19 c0 -8 -4 -12 -10 -9 -5 3
-10 10 -10 16 0 5 5 9 10 9 6 0 10 -7 10 -16z m1791 -11 c13 -17 13 -17 -6 -3
-11 8 -22 16 -24 17 -2 2 0 3 6 3 6 0 17 -8 24 -17z m-1739 -30 c-7 -11 -6
-23 1 -35 9 -13 8 -21 -1 -30 -10 -10 -14 -10 -21 0 -4 7 -15 10 -24 6 -12 -4
-17 -1 -17 12 0 14 3 15 8 6 6 -8 13 -1 22 23 8 19 20 35 27 35 10 0 11 -5 5
-17z m1735 -6 c4 -6 8 -79 9 -162 2 -82 8 -199 15 -260 13 -123 19 -295 10
-295 -7 0 -5 -972 2 -1015 3 -16 8 -68 12 -115 15 -188 15 -201 2 -194 -9 5
-9 4 1 -7 6 -7 12 -29 11 -48 0 -32 -1 -33 -9 -14 -5 13 -14 23 -20 23 -6 0
-10 10 -8 23 2 12 -3 27 -10 32 -7 6 -13 25 -15 43 -2 26 -4 29 -13 17 -17
-23 -27 -18 -20 13 3 15 3 21 0 15 -9 -20 -24 -15 -24 8 0 11 -4 18 -8 15 -5
-3 -9 0 -9 7 0 7 -3 23 -6 37 -4 14 -4 19 -1 12 5 -10 9 -10 20 -1 13 10 12
14 -2 30 -10 11 -13 19 -8 19 5 0 2 5 -6 10 -12 8 -13 11 -1 19 9 6 10 11 2
15 -8 5 -8 13 -1 26 11 21 14 81 2 63 -4 -6 -8 10 -8 35 -1 33 1 39 5 22 5
-19 8 -21 13 -9 7 18 -1 34 -22 42 -12 4 -12 6 2 6 23 1 45 41 28 51 -7 4 -9
13 -5 20 6 9 4 11 -5 5 -10 -6 -12 -1 -8 19 4 19 1 26 -11 26 -9 0 -12 3 -6 8
14 10 16 61 4 84 -7 14 -6 22 6 34 15 16 20 34 9 34 -4 0 -13 -8 -21 -17 -13
-17 -14 -16 -9 7 3 14 6 35 6 47 0 12 7 29 16 37 10 10 11 16 4 16 -7 0 -10 7
-6 15 3 8 1 15 -4 15 -10 0 -9 27 1 45 8 12 4 66 -9 124 -6 25 -6 54 -2 66 4
12 4 29 -2 39 -6 10 -7 41 -3 74 4 31 7 112 8 180 0 67 5 122 10 122 5 0 7 7
3 15 -3 8 -3 22 1 31 5 13 8 13 15 2 8 -10 9 -10 5 2 -2 9 -1 33 3 55 l8 40 2
-40 c1 -22 5 -49 10 -60 6 -12 7 34 3 120 -4 77 -6 156 -5 175 1 28 0 32 -9
18 -11 -20 -34 -24 -44 -8 -4 6 -2 16 3 23 5 7 9 29 8 49 -2 25 1 35 8 31 6
-3 5 0 -1 8 -16 16 -17 33 -2 23 7 -4 10 -1 7 7 -9 24 22 67 44 61 10 -2 21
-9 25 -15z m2553 -8 c0 -4 -7 -6 -15 -3 -8 4 -15 10 -15 15 0 4 7 6 15 3 8 -4
15 -10 15 -15z m-695 -78 c3 -5 -7 -19 -21 -30 -32 -25 -142 -121 -158 -137
-67 -68 -108 -120 -125 -159 -58 -127 -55 -122 -73 -103 -15 15 -15 18 -3 18
8 0 15 5 15 10 0 6 -4 10 -10 10 -5 0 -10 4 -10 10 0 5 7 7 15 4 8 -4 15 -1
15 5 0 6 -4 11 -10 11 -5 0 -10 4 -10 9 0 5 10 7 23 4 18 -5 20 -3 10 8 -19
20 -16 28 10 21 20 -5 21 -4 8 11 -12 15 -11 17 3 17 13 0 16 5 11 20 -5 15
-3 18 9 14 11 -4 16 0 16 11 0 10 5 13 12 9 8 -5 9 0 5 15 -5 19 -2 22 14 18
16 -4 19 -2 13 15 -5 17 -3 19 16 13 19 -6 21 -4 15 15 -6 19 -4 21 16 15 17
-6 21 -4 16 9 -3 8 -2 18 3 21 6 4 10 1 10 -5 0 -6 4 -9 10 -5 5 3 6 13 3 21
-5 13 -1 15 16 9 20 -6 22 -4 16 15 -6 19 -4 21 16 15 17 -6 21 -4 16 9 -3 8
-2 18 3 21 6 4 10 1 10 -4 0 -6 5 -11 11 -11 6 0 9 9 6 20 -4 17 -2 20 15 14
17 -5 20 -3 15 10 -7 17 17 23 28 7z m781 -38 c-7 -7 -26 7 -26 19 0 6 6 6 15
-2 9 -7 13 -15 11 -17z m-4407 -40 c8 -15 11 -15 28 -3 17 14 17 14 3 -4 -20
-26 -61 -40 -71 -24 -8 13 7 48 21 48 5 0 13 -8 19 -17z m1689 -68 c-3 -3 -9
2 -12 12 -6 14 -5 15 5 6 7 -7 10 -15 7 -18z m3129 -2 c-8 -16 -19 -62 -26
-103 -6 -41 -16 -102 -21 -135 -6 -33 -15 -123 -20 -200 -26 -336 -46 -550
-54 -563 -2 -4 -7 -54 -10 -112 -4 -58 -11 -143 -17 -190 -5 -47 -16 -143 -24
-215 -8 -71 -19 -150 -24 -175 -6 -25 -13 -76 -16 -115 -4 -38 -11 -92 -17
-120 -5 -27 -10 -57 -10 -65 0 -8 -2 -22 -5 -30 -4 -8 -7 -19 -7 -25 -10 -65
-31 -165 -37 -165 -3 0 -4 -11 -1 -25 4 -21 1 -25 -19 -24 -19 0 -20 2 -7 7
12 5 15 11 8 22 -20 32 -29 -13 -36 -175 -3 -66 -9 -135 -14 -152 -7 -26 -5
-33 6 -33 8 0 14 -9 14 -20 0 -22 -15 -27 -24 -7 -4 6 -5 3 -2 -9 2 -11 -5
-36 -16 -55 -11 -19 -17 -25 -13 -14 4 17 2 16 -14 -5 -11 -14 -25 -56 -32
-95 -6 -38 -17 -90 -24 -115 -8 -25 -16 -70 -19 -100 -3 -30 -10 -83 -16 -117
-11 -68 -10 -122 2 -129 5 -3 5 -11 1 -17 -4 -7 -9 -30 -10 -52 -4 -63 -34
-290 -39 -294 -18 -19 -19 36 -1 172 16 125 18 160 8 166 -15 10 -30 111 -25
166 6 54 21 161 39 270 30 187 45 294 60 435 14 130 40 317 65 470 10 58 17
136 51 525 18 213 36 381 59 555 9 65 33 197 55 295 9 39 27 126 41 195 46
231 88 375 112 389 9 6 34 11 55 11 l38 0 -14 -27z m-1027 -68 c7 -9 10 -18 7
-21 -10 -11 -37 5 -37 21 0 19 14 19 30 0z m-3990 -60 c-7 -8 -20 -15 -29 -15
-11 0 -8 5 9 14 33 19 35 19 20 1z m3807 -17 c-3 -8 -6 -5 -6 6 -1 11 2 17 5
13 3 -3 4 -12 1 -19z m-1912 -18 c1 -11 -2 -20 -7 -20 -4 0 -8 12 -8 27 0 30
13 24 15 -7z m515 19 c0 -5 5 -7 10 -4 6 3 10 1 10 -5 0 -15 -42 -8 -48 8 -2
6 3 12 12 12 9 0 16 -5 16 -11z m1205 -28 c-10 -16 -25 -3 -25 22 0 20 1 20
16 5 9 -9 13 -21 9 -27z m-3715 -1 c10 0 25 7 34 15 8 8 17 12 20 7 7 -11 -61
-55 -73 -47 -6 3 -10 18 -10 33 1 17 3 21 6 10 2 -10 13 -18 23 -18z m-2160
-24 c0 -2 -8 -10 -17 -17 -16 -13 -17 -12 -4 4 13 16 21 21 21 13z m5510 -32
c0 -8 4 -14 9 -14 12 0 22 -28 12 -34 -4 -3 -17 15 -28 40 -14 29 -16 41 -7
33 8 -6 14 -18 14 -25z m-3390 -8 c0 -2 -7 -7 -16 -10 -8 -3 -12 -2 -9 4 6 10
25 14 25 6z m-50 -41 c-7 -8 -17 -15 -23 -15 -6 0 -2 7 9 15 25 19 30 19 14 0z
m3515 5 c-3 -5 -14 -10 -23 -9 -14 0 -13 2 3 9 27 11 27 11 20 0z m95 -10 c8
-5 12 -11 9 -14 -3 -3 -14 1 -25 9 -21 16 -8 20 16 5z m-50 -15 c0 -8 -9 -15
-20 -15 -11 0 -20 7 -20 15 0 8 9 15 20 15 11 0 20 -7 20 -15z m-3640 -48 c0
-2 -12 -14 -27 -28 l-28 -24 24 28 c23 25 31 32 31 24z m4734 -13 c4 -10 1
-14 -6 -12 -15 5 -23 28 -10 28 5 0 13 -7 16 -16z m110 -25 c-4 -7 0 -9 14 -5
11 4 23 2 26 -3 5 -8 -33 -9 -52 -2 -5 2 8 21 14 21 3 0 2 -5 -2 -11z m-7609
-59 l20 -9 -20 1 c-11 0 -31 4 -45 8 l-25 8 25 0 c14 0 34 -3 45 -8z m6462
-32 c-3 -7 -5 -2 -5 12 0 14 2 19 5 13 2 -7 2 -19 0 -25z m-6512 -4 c9 -15 21
-41 26 -58 l8 -31 -20 28 c-11 15 -26 27 -33 27 -8 0 -11 10 -8 30 2 17 5 30
7 30 1 0 10 -12 20 -26z m7522 0 c-3 -3 -12 -4 -19 -1 -8 3 -5 6 6 6 11 1 17
-2 13 -5z m-6700 -26 c-3 -8 -6 -5 -6 6 -1 11 2 17 5 13 3 -3 4 -12 1 -19z
m68 -41 c-7 -28 -17 -63 -21 -77 -7 -25 -7 -25 14 -6 22 19 22 19 22 -7 0 -20
5 -27 19 -27 11 0 21 -6 24 -12 3 -10 7 -10 18 -2 9 8 22 9 39 2 20 -7 22 -11
10 -18 -13 -8 -12 -11 4 -23 13 -9 17 -21 14 -35 -5 -16 -1 -22 16 -24 18 -3
21 -9 19 -42 -3 -46 -5 -48 -38 -48 -14 0 -25 -5 -25 -10 0 -5 5 -6 10 -3 16
10 12 -11 -5 -25 -8 -7 -12 -16 -9 -21 3 -5 -2 -9 -10 -9 -10 0 -16 -9 -16
-24 0 -16 -7 -27 -19 -31 -11 -3 -23 -15 -27 -27 -5 -16 -8 -18 -15 -7 -7 11
-9 9 -9 -6 0 -17 -2 -17 -10 -5 -14 21 -12 30 5 30 25 0 17 15 -9 16 -14 1
-27 -4 -30 -12 -3 -8 -12 -14 -21 -14 -8 0 -15 -9 -15 -20 0 -11 -7 -23 -15
-26 -8 -4 -12 -10 -9 -15 3 -5 2 -36 -2 -70 -5 -48 -11 -63 -25 -66 -15 -4
-17 -9 -7 -26 8 -16 7 -23 -4 -31 -10 -7 -14 -22 -11 -42 5 -29 3 -31 -23 -31
-15 0 -41 8 -57 18 -25 15 -31 25 -32 59 -1 23 -7 45 -12 49 -5 3 -17 34 -27
69 -21 76 -19 172 3 189 14 10 14 15 3 34 -21 33 -14 195 9 237 11 18 19 39
19 46 0 8 7 19 15 26 8 7 12 16 9 21 -3 5 6 13 20 19 15 5 25 15 24 22 -2 10
10 12 45 10 47 -4 48 -3 38 17 -9 17 -9 21 2 21 8 0 18 -15 22 -32 4 -23 9
-28 13 -18 16 36 36 56 57 58 23 2 23 1 10 -51z m6126 23 c5 0 9 -4 9 -8 0 -5
-13 -7 -30 -4 -16 2 -27 9 -24 14 3 5 13 7 21 4 8 -3 19 -6 24 -6z m327 -8 c2
-7 -7 -12 -23 -12 -22 0 -24 2 -13 15 15 16 30 15 36 -3z m-138 -42 c0 -5 -12
-10 -26 -10 -14 0 -23 4 -19 10 3 6 15 10 26 10 10 0 19 -4 19 -10z m-230 -4
c0 -3 -4 -8 -10 -11 -5 -3 -10 -1 -10 4 0 6 5 11 10 11 6 0 10 -2 10 -4z m120
-56 c-8 -5 -19 -10 -25 -10 -5 0 -3 5 5 10 8 5 20 10 25 10 6 0 3 -5 -5 -10z
m-416 -21 c-6 -11 -24 -2 -24 11 0 5 7 7 15 4 8 -4 12 -10 9 -15z m1093 -66
c-10 -11 -29 -18 -51 -17 -56 2 -53 11 6 22 29 5 55 10 57 11 2 0 -3 -7 -12
-16z m-8137 -64 c-47 -15 -89 -27 -94 -26 -14 4 73 39 108 43 16 2 32 6 34 9
3 3 12 5 21 4 9 0 -22 -14 -69 -30z m6340 21 c12 -8 10 -10 -10 -10 -14 0 -32
5 -40 10 -12 8 -10 10 10 10 14 0 32 -5 40 -10z m745 -10 c3 -5 -1 -10 -9 -10
-9 0 -16 5 -16 10 0 6 4 10 9 10 6 0 13 -4 16 -10z m855 0 c0 -5 -7 -10 -15
-10 -8 0 -15 5 -15 10 0 6 7 10 15 10 8 0 15 -4 15 -10z m105 -30 c3 -5 -1
-10 -10 -10 -9 0 -13 5 -10 10 3 6 8 10 10 10 2 0 7 -4 10 -10z m-859 -14 c8
-8 14 -18 14 -22 0 -5 -5 -3 -11 3 -6 6 -18 9 -25 6 -14 -5 -19 8 -7 20 9 10
13 9 29 -7z m104 -16 c0 -5 -4 -10 -10 -10 -5 0 -10 5 -10 10 0 6 5 10 10 10
6 0 10 -4 10 -10z m45 0 c-3 -5 -14 -10 -23 -10 -15 0 -15 2 -2 10 20 13 33
13 25 0z m162 -12 c1 -12 -3 -16 -10 -11 -6 4 -20 8 -30 8 -10 1 -22 6 -28 12
-7 7 1 10 28 9 30 0 39 -5 40 -18z m38 2 c-3 -5 -11 -10 -16 -10 -6 0 -7 5 -4
10 3 6 11 10 16 10 6 0 7 -4 4 -10z m-260 -40 c-3 -5 -1 -10 4 -10 6 0 11 -5
11 -11 0 -8 -5 -8 -15 1 -17 14 -20 30 -4 30 5 0 7 -4 4 -10z m215 -20 c0 -5
-8 -10 -17 -11 -10 0 -26 -2 -35 -4 -18 -3 -24 6 -11 18 10 11 63 8 63 -3z
m-825 -110 c3 -5 1 -10 -4 -10 -6 0 -11 5 -11 10 0 6 2 10 4 10 3 0 8 -4 11
-10z m-5390 -124 c23 -21 24 -27 13 -50 -19 -42 -41 -29 -43 27 -1 26 0 47 1
47 2 0 15 -11 29 -24z m5941 9 c9 -8 11 -15 5 -15 -5 0 -13 5 -16 10 -4 7 -13
7 -26 0 -11 -7 -19 -7 -19 -1 0 5 8 12 18 14 9 3 18 5 20 6 2 0 10 -6 18 -14z
m-160 -14 c-4 -5 0 -12 6 -14 7 -3 3 -6 -9 -6 -13 -1 -23 4 -23 11 0 6 -6 4
-13 -7 -13 -17 -14 -17 -20 4 -4 18 -1 21 30 21 19 0 32 -4 29 -9z m594 -35
c0 -11 -19 -15 -25 -6 -3 5 1 10 9 10 9 0 16 -2 16 -4z m-487 -23 c-7 -2 -19
-2 -25 0 -7 3 -2 5 12 5 14 0 19 -2 13 -5z m-1835 -74 c-3 -8 -7 -3 -11 10 -4
17 -3 21 5 13 5 -5 8 -16 6 -23z m669 25 c-3 -3 -12 -4 -19 -1 -8 3 -5 6 6 6
11 1 17 -2 13 -5z m1313 -9 c0 -19 -11 -19 -36 0 -18 14 -18 14 9 15 17 0 27
-5 27 -15z m90 -6 c0 -10 -1 -10 -45 -14 -16 -2 -24 -1 -16 2 10 4 11 7 1 13
-8 5 2 8 24 8 20 0 36 -4 36 -9z m-355 -9 c5 -8 11 -7 21 1 8 7 14 7 14 1 0
-5 8 -12 18 -14 19 -5 24 -40 7 -55 -4 -5 -4 -2 0 6 6 10 4 13 -7 9 -8 -4 -21
-2 -29 3 -10 6 -10 9 -1 9 6 0 12 5 12 10 0 6 -15 10 -34 10 -34 0 -52 11 -39
24 10 9 31 7 38 -4z m131 -15 c-8 -8 -21 -15 -28 -15 -8 1 -6 6 6 15 26 20 42
19 22 0z m438 -6 c-8 -14 -21 -11 -21 5 0 8 6 12 14 9 7 -3 10 -9 7 -14z m94
4 c4 3 14 2 22 -4 11 -6 2 -9 -27 -9 -40 0 -52 8 -36 23 3 4 12 2 19 -4 7 -6
17 -8 22 -6z m-128 -3 c0 -5 -2 -10 -4 -10 -3 0 -8 5 -11 10 -3 6 -1 10 4 10
6 0 11 -4 11 -10z m-2243 -22 c-3 -8 -6 -5 -6 6 -1 11 2 17 5 13 3 -3 4 -12 1
-19z m1953 7 c0 -8 -3 -14 -7 -14 -18 3 -32 -2 -45 -15 -15 -14 -121 -28 -112
-14 3 4 21 8 40 8 22 0 37 6 41 16 3 8 12 13 20 9 11 -3 13 -1 9 10 -4 11 2
15 24 15 20 0 30 -5 30 -15z m579 -10 c15 -15 13 -16 -24 -9 -22 4 -53 13 -70
21 -29 14 -28 14 24 9 31 -3 62 -13 70 -21z m-6064 -25 c9 -10 15 -26 12 -35
-4 -8 -1 -15 6 -16 8 0 8 -2 -1 -6 -19 -7 -52 26 -52 54 0 28 11 29 35 3z
m4740 10 c3 -5 1 -10 -4 -10 -6 0 -11 5 -11 10 0 6 2 10 4 10 3 0 8 -4 11 -10z
m-4617 -32 c5 -7 11 -22 13 -32 5 -25 23 -25 27 0 5 26 29 43 52 37 26 -7 25
-33 0 -66 -11 -14 -20 -30 -20 -36 0 -16 -16 -13 -36 6 -12 12 -19 14 -21 6
-5 -13 -51 -7 -70 9 -16 13 -17 32 -1 22 7 -4 8 -3 4 5 -5 7 -5 23 -2 37 7 26
37 33 54 12z m5892 -18 c0 -5 -4 -10 -9 -10 -6 0 -13 5 -16 10 -3 6 1 10 9 10
9 0 16 -4 16 -10z m45 -10 c3 -5 2 -10 -4 -10 -5 0 -13 5 -16 10 -3 6 -2 10 4
10 5 0 13 -4 16 -10z m-5715 -35 c-14 -17 -40 -20 -40 -5 0 6 8 10 18 10 14 0
14 2 3 9 -11 7 -10 10 5 13 24 5 30 -8 14 -27z m-345 -3 c-3 -3 -11 0 -18 7
-9 10 -8 11 6 5 10 -3 15 -9 12 -12z m35 8 c0 -5 -5 -10 -11 -10 -5 0 -7 5 -4
10 3 6 8 10 11 10 2 0 4 -4 4 -10z m4950 0 c0 -5 -7 -10 -15 -10 -8 0 -15 5
-15 10 0 6 7 10 15 10 8 0 15 -4 15 -10z m-467 -7 c-13 -2 -33 -2 -45 0 -13 2
-3 4 22 4 25 0 35 -2 23 -4z m377 -3 c11 -8 7 -9 -15 -4 -37 8 -45 14 -19 14
10 0 26 -5 34 -10z m137 4 c-3 -3 -12 -4 -19 -1 -8 3 -5 6 6 6 11 1 17 -2 13
-5z m-4617 -30 c0 -8 -5 -12 -10 -9 -6 4 -8 11 -5 16 9 14 15 11 15 -7z m5080
-13 c0 -6 -10 -6 -80 -1 -23 2 -23 3 5 9 33 7 75 3 75 -8z m-210 -12 c0 -5 -4
-9 -10 -9 -5 0 -10 7 -10 16 0 8 5 12 10 9 6 -3 10 -10 10 -16z m-5150 1 c13
-8 13 -10 -2 -10 -9 0 -20 5 -23 10 -8 13 5 13 25 0z m-950 -20 c18 -12 2 -12
-25 0 -13 6 -15 9 -5 9 8 0 22 -4 30 -9z m6530 -20 c-12 -8 -10 -10 9 -10 24
0 24 -1 6 -14 -17 -12 -21 -12 -31 2 -8 11 -13 12 -18 4 -4 -7 -12 -12 -17
-12 -13 0 9 22 36 37 23 13 36 6 15 -7z m-160 0 c0 -5 -4 -10 -10 -10 -5 0
-10 5 -10 10 0 6 5 10 10 10 6 0 10 -4 10 -10z m215 -10 c3 -5 1 -10 -4 -10
-6 0 -11 5 -11 10 0 6 2 10 4 10 3 0 8 -4 11 -10z m55 -2 c0 -9 3 -8 10 2 5 8
12 12 15 8 4 -4 -5 -14 -19 -23 -26 -17 -26 -41 0 -31 8 3 14 1 14 -4 0 -6
-15 -9 -32 -7 l-33 2 15 32 c15 33 30 43 30 21z m-5873 -20 c-3 -8 -6 -5 -6 6
-1 11 2 17 5 13 3 -3 4 -12 1 -19z m5499 4 c-16 -2 -32 0 -37 5 -5 5 7 7 29 4
34 -5 35 -6 8 -9z m-5465 -22 c5 0 9 8 10 18 0 11 2 12 6 4 3 -8 9 -10 16 -3
13 11 77 -12 77 -27 0 -10 -64 -62 -76 -62 -3 0 -1 7 6 15 7 9 10 18 6 22 -3
3 -6 1 -6 -5 0 -7 -14 -12 -32 -11 -28 0 -30 2 -13 9 15 6 16 9 4 9 -11 1 -16
11 -16 34 0 17 2 24 4 15 3 -10 9 -18 14 -18z m5709 -6 c0 -2 -12 -4 -27 -4
-21 0 -24 3 -14 9 13 8 41 5 41 -5z m390 12 c0 -2 -7 -7 -16 -10 -8 -3 -12 -2
-9 4 6 10 25 14 25 6z m-360 -16 c0 -5 -4 -10 -10 -10 -5 0 -10 5 -10 10 0 6
5 10 10 10 6 0 10 -4 10 -10z m210 -14 c-10 -9 -26 -12 -50 -8 l-35 6 40 7
c22 3 44 7 50 8 5 0 3 -5 -5 -13z m143 -11 c-3 -9 -8 -14 -10 -11 -3 3 -2 9 2
15 9 16 15 13 8 -4z m47 -15 c0 -5 -2 -10 -4 -10 -3 0 -8 5 -11 10 -3 6 -1 10
4 10 6 0 11 -4 11 -10z m90 -10 c0 -5 -4 -10 -10 -10 -5 0 -10 5 -10 10 0 6 5
10 10 10 6 0 10 -4 10 -10z m-7160 -125 c0 -30 -4 -55 -10 -55 -11 0 -13 52
-4 88 10 36 14 26 14 -33z m230 -36 c0 -5 3 -8 8 -5 4 2 25 1 47 -3 22 -4 53
-4 68 0 24 7 27 5 22 -12 -4 -13 -2 -19 9 -19 12 0 38 -11 96 -41 8 -5 58 -29
110 -55 52 -26 113 -59 135 -73 22 -14 72 -37 112 -51 40 -13 70 -26 68 -28
-4 -4 -71 9 -145 28 -19 5 -64 14 -100 20 -36 7 -74 15 -85 18 -18 5 -18 6 5
13 17 5 2 7 -45 8 -60 1 -197 28 -155 30 11 1 11 4 2 13 -9 9 -15 9 -24 0 -23
-23 -29 -12 -9 15 25 30 20 44 -7 20 -10 -10 -22 -17 -27 -17 -14 0 -55 42
-55 56 0 6 -7 15 -16 18 -10 4 -13 2 -9 -7 4 -6 -1 -3 -9 7 -9 11 -16 16 -17
10 0 -5 -5 2 -10 15 -6 16 -6 28 2 37 14 17 29 18 29 3z m4402 -134 c3 -13 1
-22 -3 -19 -9 5 -13 44 -5 44 2 0 6 -11 8 -25z m15 -152 c-3 -10 -5 -4 -5 12
0 17 2 24 5 18 2 -7 2 -21 0 -30z m-27 -183 c0 -5 -4 -10 -10 -10 -5 0 -10 5
-10 10 0 6 5 10 10 10 6 0 10 -4 10 -10z m47 -12 c-3 -8 -6 -5 -6 6 -1 11 2
17 5 13 3 -3 4 -12 1 -19z m2647 -13 c-4 -8 -8 -15 -10 -15 -2 0 -4 7 -4 15 0
8 4 15 10 15 5 0 7 -7 4 -15z m-2694 -35 c0 -5 -2 -10 -4 -10 -3 0 -8 5 -11
10 -3 6 -1 10 4 10 6 0 11 -4 11 -10z m2688 -66 c-3 -14 -5 -12 -10 9 -3 19
-2 25 4 19 6 -6 8 -18 6 -28z m-17 -101 c-12 -20 -14 -14 -5 12 4 9 9 14 11
11 3 -2 0 -13 -6 -23z m-6221 -123 c8 -5 11 -10 5 -10 -5 0 -17 5 -25 10 -8 5
-10 10 -5 10 6 0 17 -5 25 -10z m-15 -30 c3 -5 2 -10 -4 -10 -5 0 -13 5 -16
10 -3 6 -2 10 4 10 5 0 13 -4 16 -10z m-10 -70 c3 -6 -1 -7 -9 -4 -18 7 -21
14 -7 14 6 0 13 -4 16 -10z m0 -38 c-3 -3 -11 0 -18 7 -9 10 -8 11 6 5 10 -3
15 -9 12 -12z m3647 -695 c-2 -5 -6 -6 -8 -4 -8 8 -41 297 -35 303 7 7 49
-287 43 -299z m2482 246 c-4 -21 -10 -42 -14 -48 -4 -5 -10 -19 -13 -30 -2
-11 -5 1 -6 27 -1 32 5 54 16 68 24 27 25 26 17 -17z m-6117 -529 c-3 -3 -12
-4 -19 -1 -8 3 -5 6 6 6 11 1 17 -2 13 -5z"/>
<path d="M4770 6630 c0 -5 7 -7 15 -4 8 4 15 8 15 10 0 2 -7 4 -15 4 -8 0 -15
-4 -15 -10z"/>
<path d="M4965 6270 c3 -5 8 -10 11 -10 2 0 4 5 4 10 0 6 -5 10 -11 10 -5 0
-7 -4 -4 -10z"/>
<path d="M5902 2745 c0 -16 2 -22 5 -12 2 9 2 23 0 30 -3 6 -5 -1 -5 -18z"/>
<path d="M5920 2739 c0 -5 5 -7 10 -4 6 3 10 8 10 11 0 2 -4 4 -10 4 -5 0 -10
-5 -10 -11z"/>
<path d="M8727 1625 c-4 -8 -3 -16 1 -19 4 -3 9 4 9 15 2 23 -3 25 -10 4z"/>
<path d="M8670 1530 c0 -11 2 -20 4 -20 2 0 6 9 9 20 3 11 1 20 -4 20 -5 0 -9
-9 -9 -20z"/>
<path d="M8660 1461 c0 -6 5 -13 10 -16 6 -3 10 1 10 9 0 9 -4 16 -10 16 -5 0
-10 -4 -10 -9z"/>
<path d="M8660 1418 c-5 -27 -3 -108 2 -108 5 0 8 25 8 55 0 30 -2 55 -5 55
-3 0 -5 -1 -5 -2z"/>
<path d="M8633 1175 c0 -8 4 -12 9 -9 4 3 8 9 8 15 0 5 -4 9 -8 9 -5 0 -9 -7
-9 -15z"/>
<path d="M1790 3235 c0 -8 5 -15 10 -15 6 0 10 7 10 15 0 8 -4 15 -10 15 -5 0
-10 -7 -10 -15z"/>
<path d="M1770 3111 c0 -7 -4 -9 -10 -6 -5 3 -10 1 -10 -4 0 -6 4 -11 9 -11
13 0 25 20 17 27 -3 4 -6 1 -6 -6z"/>
<path d="M1580 2570 c0 -13 18 -22 24 -11 3 5 -1 11 -9 15 -8 3 -15 1 -15 -4z"/>
<path d="M1590 2490 c0 -5 4 -10 9 -10 5 0 18 -3 28 -6 16 -6 16 -5 -2 9 -23
19 -35 21 -35 7z"/>
<path d="M2396 2203 c-6 -14 -5 -15 5 -6 7 7 10 15 7 18 -3 3 -9 -2 -12 -12z"/>
<path d="M2420 2189 c0 -5 5 -7 10 -4 6 3 10 8 10 11 0 2 -4 4 -10 4 -5 0 -10
-5 -10 -11z"/>
<path d="M8410 8002 c0 -11 8 -22 19 -25 16 -4 18 -1 12 16 -10 28 -31 34 -31
9z"/>
<path d="M8567 7474 c-7 -8 4 -44 14 -44 5 0 9 7 9 15 0 8 5 15 10 15 6 0 10
4 10 8 0 9 -35 13 -43 6z"/>
<path d="M8630 7360 c0 -5 5 -10 11 -10 5 0 7 5 4 10 -3 6 -8 10 -11 10 -2 0
-4 -4 -4 -10z"/>
<path d="M8617 7223 c-11 -10 -8 -43 3 -43 6 0 10 11 10 25 0 26 -2 29 -13 18z"/>
<path d="M8650 7201 c0 -5 -3 -18 -6 -28 -5 -16 -4 -16 10 1 18 23 20 36 6 36
-5 0 -10 -4 -10 -9z"/>
<path d="M8605 7131 c-6 -11 9 -23 19 -14 9 9 7 23 -3 23 -6 0 -12 -4 -16 -9z"/>
<path d="M8646 7124 c-9 -22 -8 -24 9 -18 8 4 15 12 15 20 0 19 -16 18 -24 -2z"/>
<path d="M8635 7070 c-3 -5 -1 -10 4 -10 6 0 11 5 11 10 0 6 -2 10 -4 10 -3 0
-8 -4 -11 -10z"/>
<path d="M8595 6960 c-3 -11 -8 -39 -10 -62 -2 -24 -8 -56 -14 -71 -6 -16 -11
-32 -11 -36 0 -12 58 0 71 15 18 22 2 29 -21 9 -18 -16 -20 -16 -20 -1 0 9 9
24 20 33 11 10 20 22 20 28 0 5 -4 4 -9 -4 -5 -7 -14 -10 -20 -7 -6 4 -8 12
-5 18 4 6 8 25 10 41 1 16 7 33 14 37 8 5 7 9 -4 13 -9 4 -17 -1 -21 -13z"/>
<path d="M4816 6815 c-3 -8 -3 -22 0 -30 7 -17 24 -20 24 -5 0 6 -4 10 -9 10
-5 0 -7 9 -4 20 6 23 -2 27 -11 5z"/>
<path d="M9396 6646 c3 -8 -1 -30 -10 -47 -9 -18 -13 -41 -10 -52 5 -15 3 -19
-9 -14 -18 7 -39 -35 -30 -60 6 -16 5 -17 -13 -3 -10 8 -22 20 -27 27 -5 9
-15 9 -36 2 -20 -7 -36 -7 -49 0 -16 9 -21 7 -25 -8 -2 -10 -21 -27 -41 -36
-21 -10 -33 -21 -28 -24 5 -3 7 -21 5 -38 -4 -24 -10 -33 -24 -33 -11 0 -22
-7 -25 -15 -4 -10 -13 -13 -25 -10 -25 8 -24 -12 1 -27 26 -16 26 -32 1 -18
-25 13 -41 -8 -19 -24 8 -6 17 -19 21 -28 13 -35 -47 -14 -98 35 -54 52 -70
58 -61 25 3 -13 6 -31 6 -40 0 -9 9 -20 20 -23 11 -3 20 -13 20 -21 0 -17 -31
-19 -48 -2 -10 10 -14 8 -18 -10 -4 -15 -14 -22 -30 -22 -26 0 -52 -35 -31
-43 9 -4 9 -7 0 -18 -15 -16 -17 -49 -3 -49 6 0 10 -6 10 -14 0 -9 8 -12 25
-8 18 3 25 0 23 -9 -3 -15 5 -15 35 -4 10 4 17 3 17 -4 0 -6 17 -11 40 -11 23
0 40 -5 40 -11 0 -6 9 -9 20 -6 11 3 23 1 26 -4 10 -17 83 -59 102 -59 10 0
27 -8 38 -19 11 -10 38 -30 60 -43 46 -30 94 -76 94 -92 0 -6 16 -27 35 -46
l35 -34 0 471 c0 300 -4 474 -10 478 -6 3 -7 -1 -4 -9z"/>
<path d="M8534 6525 c-3 -11 -8 -27 -9 -35 -2 -8 -6 -30 -10 -47 -4 -18 -5
-33 -2 -33 10 0 37 57 30 63 -3 4 2 18 11 32 9 14 13 25 9 25 -5 0 -1 5 7 10
12 7 10 9 -7 7 -12 0 -25 -10 -29 -22z"/>
<path d="M8398 6470 c9 -21 18 -35 20 -30 3 9 -25 70 -33 70 -2 0 4 -18 13
-40z"/>
<path d="M8490 6460 c0 -11 2 -20 4 -20 2 0 6 9 9 20 3 11 1 20 -4 20 -5 0 -9
-9 -9 -20z"/>
<path d="M4830 6125 c-6 -8 -10 -19 -8 -26 2 -6 9 0 16 15 13 29 10 33 -8 11z"/>
<path d="M8716 6098 c-7 -30 6 -41 29 -24 16 12 17 16 6 30 -18 22 -28 20 -35
-6z"/>
<path d="M4528 5309 c-18 -10 -25 -39 -9 -39 12 0 33 28 29 39 -2 6 -9 6 -20
0z"/>
<path d="M4440 5290 c0 -5 5 -10 10 -10 6 0 10 5 10 10 0 6 -4 10 -10 10 -5 0
-10 -4 -10 -10z"/>
<path d="M2616 5166 c3 -9 11 -16 16 -16 13 0 5 23 -10 28 -7 2 -10 -2 -6 -12z"/>
<path d="M2703 5125 c12 -13 24 -20 25 -14 5 13 -17 39 -33 39 -9 0 -6 -9 8
-25z"/>
<path d="M2856 4995 c30 -30 54 -60 54 -67 0 -9 3 -9 13 1 10 10 3 21 -35 56
-27 24 -48 48 -48 54 0 6 -9 11 -19 11 -15 0 -6 -13 35 -55z"/>
<path d="M2790 5006 c0 -4 7 -14 15 -22 8 -9 15 -11 15 -6 0 5 -7 15 -15 22
-8 7 -15 9 -15 6z"/>
<path d="M2890 4898 c0 -9 5 -20 10 -23 14 -9 13 -42 -2 -47 -9 -3 -9 -6 0
-12 7 -4 12 -2 12 4 0 6 5 8 12 4 6 -4 8 -3 4 4 -3 5 -1 12 4 14 6 2 -1 19
-15 38 -16 21 -25 28 -25 18z"/>
<path d="M2996 4687 c3 -10 9 -15 12 -12 3 3 0 11 -7 18 -10 9 -11 8 -5 -6z"/>
<path d="M3040 4640 c0 -5 5 -10 11 -10 5 0 7 5 4 10 -3 6 -8 10 -11 10 -2 0
-4 -4 -4 -10z"/>
<path d="M3247 4459 c-4 -16 -3 -18 9 -8 7 6 11 15 8 20 -8 13 -11 11 -17 -12z"/>
<path d="M3270 4440 c-9 -6 -10 -10 -3 -10 6 0 15 5 18 10 8 12 4 12 -15 0z"/>
<path d="M3345 4430 c-4 -7 0 -19 9 -28 13 -14 16 -14 16 -2 0 25 -16 44 -25
30z"/>
<path d="M3364 4279 c4 -13 9 -39 13 -56 3 -18 8 -33 12 -33 10 0 10 54 0 66
-5 7 -8 17 -7 24 2 7 -3 15 -11 18 -11 3 -12 -1 -7 -19z"/>
<path d="M3281 4234 c0 -11 3 -14 6 -6 3 7 2 16 -1 19 -3 4 -6 -2 -5 -13z"/>
<path d="M3310 4239 c0 -5 5 -7 10 -4 6 3 10 8 10 11 0 2 -4 4 -10 4 -5 0 -10
-5 -10 -11z"/>
<path d="M3390 4125 c7 -9 15 -13 17 -11 7 7 -7 26 -19 26 -6 0 -6 -6 2 -15z"/>
<path d="M3340 4090 c0 -5 5 -10 11 -10 5 0 7 5 4 10 -3 6 -8 10 -11 10 -2 0
-4 -4 -4 -10z"/>
<path d="M3393 4077 c3 -9 1 -18 -6 -21 -9 -3 -9 -5 1 -5 6 -1 12 -9 12 -18 0
-12 3 -14 11 -6 14 14 8 55 -10 61 -10 3 -12 0 -8 -11z"/>
<path d="M3340 4061 c0 -6 5 -13 10 -16 6 -3 10 1 10 9 0 9 -4 16 -10 16 -5 0
-10 -4 -10 -9z"/>
<path d="M3320 4030 c0 -5 5 -10 11 -10 5 0 7 5 4 10 -3 6 -8 10 -11 10 -2 0
-4 -4 -4 -10z"/>
<path d="M3335 4000 c-4 -6 1 -7 12 -4 16 5 16 4 -1 -10 -16 -13 -17 -16 -4
-16 9 0 18 6 21 14 9 23 -15 37 -28 16z"/>
<path d="M3399 4005 c-5 -24 -1 -49 9 -53 8 -2 12 7 12 27 0 17 -4 31 -10 31
-5 0 -10 -2 -11 -5z"/>
<path d="M3300 3940 c0 -11 4 -20 9 -20 5 0 7 9 4 20 -3 11 -7 20 -9 20 -2 0
-4 -9 -4 -20z"/>
<path d="M3408 3928 c0 -7 -2 -17 -2 -23 -1 -5 -5 -16 -9 -22 -5 -8 -3 -13 5
-13 9 0 15 13 16 35 2 32 -6 51 -10 23z"/>
<path d="M3340 3911 c0 -12 6 -21 14 -21 17 0 15 32 -2 38 -7 2 -12 -6 -12
-17z"/>
<path d="M3280 3896 c0 -22 3 -27 11 -19 8 8 8 16 0 30 -9 16 -10 14 -11 -11z"/>
<path d="M7277 3053 c-17 -43 -10 -56 33 -66 21 -5 26 -3 26 13 0 11 -5 20
-10 20 -5 0 -1 7 10 15 12 9 14 14 6 15 -7 0 -10 5 -7 10 9 15 25 12 25 -5 0
-20 19 -19 27 1 8 21 -14 34 -58 34 -33 0 -38 -4 -52 -37z m28 -43 c3 -6 -1
-7 -9 -4 -18 7 -21 14 -7 14 6 0 13 -4 16 -10z"/>
<path d="M7355 3020 c-3 -5 -1 -10 4 -10 6 0 11 5 11 10 0 6 -2 10 -4 10 -3 0
-8 -4 -11 -10z"/>
<path d="M7350 2990 c0 -5 7 -10 15 -10 8 0 15 5 15 10 0 6 -7 10 -15 10 -8 0
-15 -4 -15 -10z"/>
<path d="M7235 2880 c-3 -5 -1 -10 4 -10 6 0 11 5 11 10 0 6 -2 10 -4 10 -3 0
-8 -4 -11 -10z"/>
<path d="M7110 2110 c0 -5 5 -10 11 -10 5 0 7 5 4 10 -3 6 -8 10 -11 10 -2 0
-4 -4 -4 -10z"/>
<path d="M7040 1924 c0 -3 6 -12 14 -20 11 -10 17 -11 22 -3 3 6 0 15 -7 20
-16 10 -29 12 -29 3z"/>
<path d="M7095 1920 c-3 -5 -1 -10 4 -10 6 0 11 5 11 10 0 6 -2 10 -4 10 -3 0
-8 -4 -11 -10z"/>
<path d="M7041 1895 c-1 -6 4 -16 11 -23 9 -9 8 -12 -5 -12 -15 0 -16 -4 -7
-20 8 -14 8 -20 0 -20 -8 0 -8 -6 0 -20 8 -14 8 -20 0 -20 -6 0 -8 -5 -4 -12
10 -16 11 -58 2 -58 -4 0 -7 -18 -5 -40 2 -22 -1 -41 -7 -43 -7 -2 -6 -10 3
-20 9 -11 10 -17 2 -17 -17 0 -13 -27 5 -34 9 -3 17 -6 18 -6 2 0 3 14 3 30 0
17 -5 30 -10 30 -6 0 -2 9 8 20 10 11 13 20 7 20 -6 0 -9 7 -6 15 4 8 15 15
25 15 10 0 19 4 19 10 0 5 -14 7 -32 4 -32 -6 -32 -6 -13 10 14 12 16 19 8 22
-10 4 -9 10 3 22 12 11 13 17 5 20 -9 3 -9 7 0 18 9 11 9 14 0 14 -9 0 -9 5
-1 20 9 17 8 20 -7 20 -17 1 -17 1 0 11 21 12 22 29 3 29 -8 0 -17 6 -19 13
-3 6 -6 7 -6 2z"/>
<path d="M7095 1880 c-3 -5 -1 -10 4 -10 6 0 11 5 11 10 0 6 -2 10 -4 10 -3 0
-8 -4 -11 -10z"/>
<path d="M7090 1840 c0 -5 5 -10 10 -10 6 0 10 5 10 10 0 6 -4 10 -10 10 -5 0
-10 -4 -10 -10z"/>
<path d="M7090 1799 c0 -5 5 -7 10 -4 6 3 10 8 10 11 0 2 -4 4 -10 4 -5 0 -10
-5 -10 -11z"/>
<path d="M7085 1730 c-3 -5 -1 -10 4 -10 6 0 11 5 11 10 0 6 -2 10 -4 10 -3 0
-8 -4 -11 -10z"/>
<path d="M7080 1649 c0 -5 5 -7 10 -4 6 3 10 8 10 11 0 2 -4 4 -10 4 -5 0 -10
-5 -10 -11z"/>
<path d="M7080 1609 c0 -5 5 -7 10 -4 6 3 10 8 10 11 0 2 -4 4 -10 4 -5 0 -10
-5 -10 -11z"/>
<path d="M7020 1540 c0 -5 5 -10 11 -10 8 0 7 -5 -2 -16 -10 -13 -10 -17 0
-24 8 -5 9 -10 3 -14 -6 -3 -9 -23 -7 -44 1 -20 -2 -40 -9 -44 -8 -6 -7 -11 4
-18 13 -9 13 -11 0 -19 -12 -9 -12 -11 3 -17 16 -6 16 -7 1 -19 -13 -9 -14
-14 -5 -19 7 -5 15 -5 18 -2 10 10 11 116 1 116 -4 0 -3 9 4 20 11 17 10 22 0
29 -11 7 -11 9 2 14 21 8 20 27 -1 27 -17 1 -17 1 0 11 14 8 16 14 6 25 -13
16 -29 19 -29 4z"/>
<path d="M7070 1500 c0 -5 5 -10 10 -10 6 0 10 5 10 10 0 6 -4 10 -10 10 -5 0
-10 -4 -10 -10z"/>
<path d="M7075 1460 c-3 -5 -1 -10 4 -10 6 0 11 5 11 10 0 6 -2 10 -4 10 -3 0
-8 -4 -11 -10z"/>
<path d="M7070 1420 c0 -5 5 -10 10 -10 6 0 10 5 10 10 0 6 -4 10 -10 10 -5 0
-10 -4 -10 -10z"/>
<path d="M7075 1340 c-3 -5 -1 -10 4 -10 6 0 11 5 11 10 0 6 -2 10 -4 10 -3 0
-8 -4 -11 -10z"/>
<path d="M7075 1300 c-3 -5 -1 -10 4 -10 6 0 11 5 11 10 0 6 -2 10 -4 10 -3 0
-8 -4 -11 -10z"/>
<path d="M7027 1276 c-12 -9 -14 -16 -8 -21 6 -3 18 0 26 9 27 27 14 36 -18
12z"/>
<path d="M7029 1234 c-10 -13 -10 -17 1 -24 11 -7 11 -11 1 -24 -8 -10 -9 -16
-3 -16 15 0 26 21 28 53 2 30 -7 35 -27 11z"/>
<path d="M7080 1180 c0 -5 5 -10 10 -10 6 0 10 5 10 10 0 6 -4 10 -10 10 -5 0
-10 -4 -10 -10z"/>
<path d="M7040 1154 c-12 -13 -11 -17 1 -25 10 -6 10 -9 2 -9 -7 0 -13 -7 -13
-15 0 -8 5 -15 11 -15 8 0 7 -6 -2 -17 -11 -13 -11 -17 -1 -21 10 -3 10 -7 1
-19 -8 -9 -9 -17 -3 -21 12 -9 13 -52 2 -52 -5 0 -4 -9 2 -19 7 -14 7 -20 -1
-23 -8 -3 -6 -10 5 -21 10 -9 13 -17 7 -17 -15 0 -14 -27 2 -33 10 -4 10 -6 0
-6 -7 -1 -13 -7 -13 -15 0 -8 6 -17 13 -19 10 -4 10 -6 0 -6 -7 -1 -13 -7 -13
-15 0 -8 6 -17 13 -19 6 -3 4 -6 -7 -6 -18 -1 -18 -2 -2 -20 13 -15 14 -20 4
-24 -10 -4 -10 -8 2 -16 9 -7 11 -14 5 -18 -14 -11 -16 -103 -3 -103 6 0 5 -6
-3 -16 -10 -13 -10 -17 2 -25 12 -8 12 -10 -1 -20 -12 -8 -12 -12 -2 -16 10
-4 10 -8 1 -20 -10 -12 -10 -16 2 -24 12 -7 12 -10 0 -18 -7 -5 -9 -11 -5 -14
14 -8 8 -173 -5 -170 -6 2 -11 -2 -11 -7 0 -6 7 -10 15 -10 8 0 15 -4 15 -10
0 -5 -7 -10 -15 -10 -8 0 -15 -4 -15 -10 0 -5 7 -10 15 -10 8 0 15 -4 15 -10
0 -5 -4 -10 -10 -10 -5 0 -10 -4 -10 -10 0 -5 7 -10 15 -10 8 0 15 -4 15 -10
0 -5 -7 -10 -15 -10 -21 0 -19 -20 3 -21 10 0 12 -3 5 -6 -18 -7 -16 -33 2
-33 8 0 15 -5 15 -11 0 -5 -4 -7 -10 -4 -5 3 -10 -1 -10 -9 0 -8 8 -17 18 -19
16 -4 16 -5 0 -6 -11 -1 -15 -6 -12 -16 8 -19 61 -20 80 -1 18 19 18 26 -1 26
-8 0 -15 5 -15 10 0 6 5 10 10 10 6 0 10 5 10 10 0 6 -7 10 -15 10 -8 0 -15 5
-15 10 0 6 8 10 17 10 9 0 13 3 9 8 -4 4 -13 7 -19 7 -7 0 -13 9 -15 20 -2 11
-6 27 -9 35 -3 8 -5 21 -4 29 1 8 -3 18 -11 22 -10 7 -10 9 0 9 6 0 12 7 12
15 0 8 -4 15 -8 15 -5 0 -7 18 -5 40 2 25 -1 40 -8 40 -8 0 -7 6 2 17 11 13
11 17 2 20 -9 3 -10 10 -3 24 6 11 7 19 1 19 -10 0 -7 62 4 80 3 5 3 10 -2 10
-4 0 -8 61 -8 135 1 115 -2 135 -15 135 -12 1 -12 3 3 11 22 13 22 29 0 29
-15 0 -14 2 3 15 15 12 16 16 5 24 -9 6 -10 11 -2 15 17 11 13 26 -6 26 -17 1
-17 1 0 11 9 5 17 14 17 19 0 6 -8 10 -17 11 -11 0 -13 3 -5 6 6 2 12 11 12
18 0 7 -6 16 -12 18 -10 4 -10 6 0 6 6 1 12 8 12 16 0 8 -6 15 -12 15 -9 0 -9
3 1 9 12 8 12 12 2 24 -9 12 -9 16 1 19 11 4 11 8 0 20 -10 13 -10 17 0 21 10
4 8 9 -5 20 -13 11 -15 16 -5 20 7 2 10 7 7 11 -3 4 -12 -1 -19 -10z"/>
<path d="M7085 1140 c-3 -5 -1 -10 4 -10 6 0 11 5 11 10 0 6 -2 10 -4 10 -3 0
-8 -4 -11 -10z"/>
<path d="M7090 1019 c0 -5 5 -7 10 -4 6 3 10 8 10 11 0 2 -4 4 -10 4 -5 0 -10
-5 -10 -11z"/>
<path d="M7090 980 c0 -5 5 -10 10 -10 6 0 10 5 10 10 0 6 -4 10 -10 10 -5 0
-10 -4 -10 -10z"/>
<path d="M7095 900 c-3 -5 -1 -10 4 -10 6 0 11 5 11 10 0 6 -2 10 -4 10 -3 0
-8 -4 -11 -10z"/>
<path d="M7095 870 c-3 -5 -1 -10 4 -10 6 0 11 5 11 10 0 6 -2 10 -4 10 -3 0
-8 -4 -11 -10z"/>
<path d="M7101 824 c0 -11 3 -14 6 -6 3 7 2 16 -1 19 -3 4 -6 -2 -5 -13z"/>
<path d="M7101 784 c0 -11 3 -14 6 -6 3 7 2 16 -1 19 -3 4 -6 -2 -5 -13z"/>
<path d="M7100 750 c0 -5 5 -10 11 -10 5 0 7 5 4 10 -3 6 -8 10 -11 10 -2 0
-4 -4 -4 -10z"/>
<path d="M7100 710 c0 -5 5 -10 11 -10 5 0 7 5 4 10 -3 6 -8 10 -11 10 -2 0
-4 -4 -4 -10z"/>
<path d="M7100 670 c0 -5 5 -10 11 -10 5 0 7 5 4 10 -3 6 -8 10 -11 10 -2 0
-4 -4 -4 -10z"/>
<path d="M7100 630 c0 -5 5 -10 11 -10 5 0 7 5 4 10 -3 6 -8 10 -11 10 -2 0
-4 -4 -4 -10z"/>
<path d="M7100 590 c0 -5 5 -10 10 -10 6 0 10 5 10 10 0 6 -4 10 -10 10 -5 0
-10 -4 -10 -10z"/>
<path d="M7100 550 c0 -5 5 -10 10 -10 6 0 10 5 10 10 0 6 -4 10 -10 10 -5 0
-10 -4 -10 -10z"/>
<path d="M7105 510 c-3 -5 -1 -10 4 -10 6 0 11 5 11 10 0 6 -2 10 -4 10 -3 0
-8 -4 -11 -10z"/>
<path d="M7105 470 c-3 -5 -1 -10 4 -10 6 0 11 5 11 10 0 6 -2 10 -4 10 -3 0
-8 -4 -11 -10z"/>
<path d="M7105 430 c-3 -5 -1 -10 4 -10 6 0 11 5 11 10 0 6 -2 10 -4 10 -3 0
-8 -4 -11 -10z"/>
<path d="M7110 310 c0 -5 5 -10 11 -10 5 0 7 5 4 10 -3 6 -8 10 -11 10 -2 0
-4 -4 -4 -10z"/>
<path d="M7115 270 c-3 -5 -1 -10 4 -10 6 0 11 5 11 10 0 6 -2 10 -4 10 -3 0
-8 -4 -11 -10z"/>
<path d="M7120 190 c0 -5 5 -10 11 -10 5 0 7 5 4 10 -3 6 -8 10 -11 10 -2 0
-4 -4 -4 -10z"/>
<path d="M7120 150 c0 -5 5 -10 10 -10 6 0 10 5 10 10 0 6 -4 10 -10 10 -5 0
-10 -4 -10 -10z"/>
</g>
</svg>
